<?xml version="1.0" standalone="no"?>
<!DOCTYPE svg PUBLIC "-//W3C//DTD SVG 20010904//EN"
 "http://www.w3.org/TR/2001/REC-SVG-20010904/DTD/svg10.dtd">
<svg version="1.0" xmlns="http://www.w3.org/2000/svg"
 width="1280.000000pt" height="669.000000pt" viewBox="0 0 1280.000000 669.000000"
 preserveAspectRatio="xMidYMid meet">
<metadata>
Created by potrace 1.16, written by Peter Selinger 2001-2019
</metadata>
<g transform="translate(0.000000,669.000000) scale(0.100000,-0.100000)"
fill="#0b3b7d" stroke="none">
<path d="M0 3807 l0 -2883 67 -13 c261 -51 595 -153 1028 -313 690 -256 985
-345 1425 -432 600 -119 1201 -172 1832 -163 597 8 846 43 1613 227 718 172
882 193 1610 206 487 9 722 -7 1309 -92 1112 -159 1544 -190 1978 -139 321 38
544 102 1024 294 382 152 548 206 782 255 67 14 124 26 127 26 3 0 5 1330 5
2955 l0 2955 -6400 0 -6400 0 0 -2883z"/>
</g>
</svg>
