<?xml version="1.0" standalone="no"?>
<!DOCTYPE svg PUBLIC "-//W3C//DTD SVG 20010904//EN"
 "http://www.w3.org/TR/2001/REC-SVG-20010904/DTD/svg10.dtd">
<svg version="1.0" xmlns="http://www.w3.org/2000/svg"
 width="1280.000000pt" height="1007.000000pt" viewBox="0 0 1280.000000 1007.000000"
 preserveAspectRatio="xMidYMid meet">
<metadata>
Created by potrace 1.16, written by Peter Selinger 2001-2019
</metadata>
<g transform="translate(0.000000,1007.000000) scale(0.100000,-0.100000)"
fill="red" stroke="none">
<path d="M0 5035 c0 -4041 2 -5035 13 -5035 14 0 236 183 422 349 164 146 315
286 730 676 622 584 776 724 1030 935 446 371 767 560 1020 601 59 9 101 9
190 0 227 -23 366 -86 626 -287 254 -196 345 -235 544 -235 238 0 400 66 971
392 516 294 726 389 1009 455 109 26 137 28 300 28 168 0 186 -2 269 -27 49
-15 129 -48 178 -72 171 -86 282 -172 609 -470 400 -365 598 -499 869 -589
168 -55 280 -69 499 -63 322 9 639 85 1041 249 287 118 476 211 1129 560 572
306 935 483 1244 608 l107 44 0 3458 0 3458 -6400 0 -6400 0 0 -5035z"/>
</g>
</svg>
