<svg version="1.0" xmlns="http://www.w3.org/2000/svg" width="1706.667" height="1342.667" viewBox="0 0 1280 1007"><path d="M0 503.5C0 907.6.2 1007 1.3 1007c1.4 0 23.6-18.3 42.2-34.9 16.4-14.6 31.5-28.6 73-67.6 62.2-58.4 77.6-72.4 103-93.5 44.6-37.1 76.7-56 102-60.1 5.9-.9 10.1-.9 19 0 22.7 2.3 36.6 8.6 62.6 28.7 25.4 19.6 34.5 23.5 54.4 23.5 23.8 0 40-6.6 97.1-39.2 51.6-29.4 72.6-38.9 100.9-45.5 10.9-2.6 13.7-2.8 30-2.8 16.8 0 18.6.2 26.9 2.7 4.9 1.5 12.9 4.8 17.8 7.2 17.1 8.6 28.2 17.2 60.9 47 40 36.5 59.8 49.9 86.9 58.9 16.8 5.5 28 6.9 49.9 6.3 32.2-.9 63.9-8.5 104.1-24.9 28.7-11.8 47.6-21.1 112.9-56 57.2-30.6 93.5-48.3 124.4-60.8l10.7-4.4V0H0v503.5z" fill="red"/></svg>