<svg xmlns="http://www.w3.org/2000/svg" viewBox="0 0 512 512"><path fill="#0b3b7d" d="M496 362h-15V120H31v242H16c-8.291 0-15 6.709-15 15s6.709 15 15 15h225v32.763c-17.422 6.213-30 22.707-30 42.237 0 24.814 20.186 45 45 45s45-20.186 45-45c0-19.53-12.578-36.024-30-42.237V392h225c8.291 0 15-6.709 15-15s-6.709-15-15-15zM176.605 244.395c5.859 5.859 5.859 15.352 0 21.211-5.86 5.86-15.351 5.86-21.211 0L136 246.211l-19.395 19.395c-5.86 5.86-15.351 5.86-21.211 0-5.859-5.859-5.859-15.352 0-21.211L114.789 225l-19.395-19.395c-5.859-5.859-5.859-15.352 0-21.211s15.352-5.859 21.211 0L136 203.789l19.395-19.395c5.859-5.859 15.352-5.859 21.211 0s5.859 15.352 0 21.211L157.211 225l19.394 19.395zM256 482c-8.276 0-15-6.724-15-15s6.724-15 15-15 15 6.724 15 15-6.724 15-15 15zm30-242h-15v15c0 8.291-6.709 15-15 15s-15-6.709-15-15v-15h-15c-8.291 0-15-6.709-15-15s6.709-15 15-15h15v-15c0-8.291 6.709-15 15-15s15 6.709 15 15v15h15c8.291 0 15 6.709 15 15s-6.709 15-15 15zm130.605-34.395L391 231.211V255c0 8.291-6.709 15-15 15s-15-6.709-15-15v-23.789l-25.605-25.605c-5.859-5.859-5.859-15.352 0-21.211 5.859-5.859 15.352-5.859 21.211 0L376 203.789l19.395-19.395c5.859-5.859 15.352-5.859 21.211 0s5.859 15.352-.001 21.211zM481 30h-60V15c0-8.291-6.709-15-15-15s-15 6.709-15 15v15H121V15c0-8.291-6.709-15-15-15S91 6.709 91 15v15H31C14.462 30 1 43.462 1 60s13.462 30 30 30h450c16.538 0 30-13.462 30-30s-13.462-30-30-30z"/></svg>