<svg xmlns="http://www.w3.org/2000/svg" viewBox="0 0 512 512"><path fill="#0b3b7d" d="M286.463 264.475h12.994v-16.95z"/><path fill="#0b3b7d" d="M437.02 74.98C388.667 26.629 324.38 0 256 0S123.333 26.629 74.98 74.98C26.629 123.333 0 187.62 0 256s26.629 132.667 74.98 181.02C123.333 485.371 187.62 512 256 512s132.667-26.629 181.02-74.98C485.371 388.667 512 324.38 512 256s-26.629-132.667-74.98-181.02zM335.615 264.475v24.011h-12.43V306H296.35v-17.514h-36.3v-24.011l44.774-57.062h18.362v57.062h12.429zM256 431c-96.495 0-175-78.505-175-175S159.505 81 256 81V53.574L309.426 96 256 138.426V111c-79.953 0-145 65.047-145 145s65.047 145 145 145 145-65.047 145-145h30c0 96.495-78.505 175-175 175zm-37.616-200.141c-1.507-1.13-3.579-1.695-6.215-1.695-3.107 0-6.051.801-8.828 2.401-2.778 1.602-5.674 4.191-8.686 7.769l-16.95-19.916c1.788-1.977 4.097-3.789 6.921-5.438 2.825-1.646 5.954-3.059 9.392-4.237 3.436-1.176 7.085-2.095 10.947-2.754a70.485 70.485 0 0111.864-.989c10.827 0 19.044 2.237 24.647 6.709 5.601 4.473 8.404 10.712 8.404 18.715 0 2.92-.377 5.508-1.13 7.769-.755 2.26-1.765 4.308-3.036 6.144s-2.803 3.509-4.59 5.014a62.96 62.96 0 01-5.649 4.237 103.863 103.863 0 01-7.416 4.591 91.672 91.672 0 00-7.698 4.873h31.073v24.011H177c0-4.707.374-8.85 1.129-12.429.753-3.577 1.977-6.802 3.673-9.676 1.695-2.871 3.884-5.438 6.568-7.698 2.684-2.26 6.003-4.471 9.958-6.639 5.085-2.73 9.11-4.919 12.076-6.568 2.967-1.646 5.202-2.988 6.709-4.026 1.505-1.035 2.472-1.906 2.896-2.613a4.442 4.442 0 00.635-2.331c0-2.351-.755-4.094-2.26-5.224z"/></svg>