<?xml version="1.0" encoding="UTF-8"?>
<svg id="Vrstva_2" data-name="Vrstva 2" xmlns="http://www.w3.org/2000/svg" viewBox="0 0 210.34 83.99">
  <defs>
    <style>
      .cls-1, .cls-2 {
        fill: #fff;
      }

      .cls-3 {
        fill: #5a84bd;
      }

      .cls-2 {
        fill-rule: evenodd;
      }
    </style>
  </defs>
  <g id="Capa_1" data-name="Capa 1">
    <g>
      <path class="cls-2" d="M208.57,57.59c-.99,0-1.79,.79-1.79,1.78s.8,1.79,1.79,1.79,1.78-.79,1.78-1.79-.8-1.78-1.78-1.78m0,.26c.84,0,1.51,.68,1.51,1.51s-.67,1.52-1.51,1.52-1.52-.68-1.52-1.52,.68-1.51,1.52-1.51m.29,1.59c.35,0,.63-.15,.63-.55,0-.16-.08-.35-.23-.43-.15-.11-.32-.11-.49-.11h-.88v2h.25v-.92h.44l.57,.92h.29l-.6-.92Zm-.7-.19v-.7h.56c.25,0,.51,.04,.51,.34,0,.41-.43,.36-.71,.36h-.37Zm-24.91-.48l1.66-1.68c2.85-2.87,6.81-4.64,11.17-4.64s8.28,1.76,11.12,4.6l-6.33,6.34c-1.23-1.23-2.92-2-4.79-2-2.78,0-5.16,1.66-6.22,4.04l-6.61-6.66Zm-142.46,9.41c0,3.75,3.04,6.8,6.8,6.8s6.79-3.04,6.79-6.8-3.04-6.8-6.79-6.8-6.8,3.04-6.8,6.8m116.63,0c0,3.75,3.04,6.8,6.8,6.8s6.8-3.04,6.8-6.8-3.04-6.8-6.8-6.8-6.8,3.04-6.8,6.8m45.53,6.86l4.25,4.26c-2.84,2.84-6.78,4.61-11.12,4.61s-8.04-1.67-10.87-4.37l-4.52-4.5-1.68-1.67c-.21,.57-.44,1.13-.7,1.67-2.57,5.21-7.91,8.79-14.11,8.79s-11.59-3.56-14.14-8.79c-.25-.52-.47-1.05-.67-1.6l-1.61,1.6-6.37,6.34c-1.63,1.6-3.86,2.59-6.31,2.59-4.35,0-7.97-3.12-8.79-7.23l-.32-1.7-2.59-13.63-2.59,13.63-.33,1.77c-.83,4.09-4.46,7.17-8.79,7.17s-7.97-3.12-8.79-7.23l-.33-1.7-2.6-13.63-2.58,13.63-.34,1.77c-.84,4.09-4.46,7.17-8.79,7.17s-7.97-3.12-8.79-7.23l-.32-1.7-2.59-13.63-13.64,13.63-4.28,4.28c-2.84,2.82-6.73,4.58-11.05,4.58-6.23,0-11.6-3.61-14.14-8.86-.25-.52-.48-1.07-.68-1.62l-1.62,1.62-4.25,4.27c-2.83,2.83-6.78,4.59-11.13,4.59-6.22,0-11.6-3.62-14.15-8.86-1.01-2.08-1.58-4.41-1.58-6.87,0-8.69,7.04-15.73,15.73-15.73,4.34,0,8.26,1.75,11.1,4.58l-6.33,6.35c-1.23-1.23-2.93-1.99-4.81-1.99-3.75,0-6.79,3.04-6.79,6.8s3.04,6.8,6.79,6.8c1.84,0,3.52-.75,4.75-1.94l15.98-15.98c2.85-2.85,6.79-4.62,11.13-4.62,6.83,0,12.64,4.36,14.81,10.45l7.82-7.83c1.62-1.61,3.87-2.63,6.34-2.63,4.4,0,8.04,3.17,8.81,7.35l2.89,15.22,2.92-15.34c.82-4.11,4.44-7.23,8.79-7.23s7.96,3.08,8.79,7.17l2.94,15.39,2.92-15.33c.82-4.11,4.44-7.23,8.79-7.23s7.96,3.08,8.79,7.17l2.92,15.4,17.93-17.91c2.85-2.88,6.81-4.65,11.18-4.65s8.3,1.71,11.16,4.59l15.86,15.84c1.24,1.28,2.92,2.11,4.85,2.11s3.57-.77,4.8-2l2.07,2.07Z"/>
      <path class="cls-1" d="M84.27,20.9c0-11.55,9.36-20.9,20.9-20.9s20.9,9.36,20.9,20.9-9.35,20.9-20.9,20.9-20.9-9.36-20.9-20.9"/>
      <path class="cls-3" d="M94.41,12.85l1.41-1.43c2.42-2.44,5.78-3.94,9.49-3.94s7.04,1.5,9.46,3.91l-5.38,5.39c-1.05-1.05-2.48-1.7-4.08-1.7-2.36,0-4.38,1.41-5.28,3.44l-5.62-5.66Z"/>
      <path class="cls-3" d="M105.3,26.63c1.56,0,2.97-.63,4.01-1.63l5.38,5.38c-2.42,2.38-5.73,3.85-9.38,3.85s-6.84-1.42-9.24-3.71l-1.45-1.45c-1.77-2.28-2.84-5.13-2.84-8.24,0-1.61,.28-3.15,.8-4.58l8.6,8.6c1.05,1.09,2.48,1.79,4.12,1.79"/>
    </g>
  </g>
</svg>
