<svg xmlns="http://www.w3.org/2000/svg" width="773.726" height="691.249" viewBox="0 0 3382.37 3021.83" shape-rendering="geometricPrecision" text-rendering="geometricPrecision" image-rendering="optimizeQuality" fill-rule="evenodd" clip-rule="evenodd"><defs><style>.fil0{fill:#26a37a;fill-rule:nonzero}</style></defs><g id="Vrstva_x0020_1"><path class="fil0" d="M3297.78 1538.18c-26.16 7.41-14.61 44.71-41.19 52.29-1.85.53-3.54 13.28-.93 15.74 10.41 9.73 5.08 21.5 6.56 32.23h4.42c-.86.29-1.53.59-2.33.86 4.11 1.64 5.61 3.32 6.9 5.02-2.09.63-5.53 2.27-5.99 1.64-1.3-1.7-1.89-3.91-2.55-6.07-8.56 3.09-14.3 6.64-20.35 8.15-7.52 1.81-11.2 2.29-4.96 10.5 6.33 8.39 14.18 10.61 23.61 9.67-2.92 10.44-5.87 18.02-8.62 25.53-1.59 4.26-1.33 10.32-4.26 12.9-37.51 33.1-40.68 43.12-46.21 88.18-2.9 23.78-12.31 47.44-22.75 69.3-7.17 14.98-3.23 36.37-23.4 45.23-1.41.59-.51 11.83 2.41 15.97 10.04 14.22 6.97 20.17-10.13 21.28-1.2.11-4.46 12.99-2.04 15.74 7.86 8.85 8.53 12.36-4.59 13.41-1.78.17-3.17 5.19-4.73 7.97 15.86 1.3 21.67 9.16 5.25 16.62-17.16 7.81 2.73 31.64-18.52 34.52-1.42 7.04 4.59 16.96-7.64 19.81-7.46 1.74-15.57 2.33-22.13 5.76-3.29 1.76-6.63 11.43-5.16 12.94 9.42 9.96 5.44 17.14-3.01 24.2-30.93 25.64-51.14 59.85-72.45 92.91-11.41 17.65-20.17 37.47-26.67 57.47-1.08 3.32 9.82 14.56 8.17 24.77.74 1.68 1.3 3.09 1.91 4.54.91-1.51 2.04-3.03 2.78-4.54 2.32 5.24 4.62 10.49 6.89 15.68-2.47-1.58-4.76-2.8-6.9-3.85 3.72 10.84 2.43 13.98 1.08 17.08-1.85-6.3-4.31-12.54-5.28-18.89-12.28-4.9-18.92-2.04-25.78-.29-17.03 4.31-29.67 7.92-19.61 31.54 3.24 7.69-8.52 22.84-15.55 33.11-2.56 3.78-11.55 5.3-17.08 4.42-8.79-1.33-17.17-7.63-25.67-7.51-3.5 0-5.48 14.16-10.66 16.66-6.64 3.15-16.31-.59-23.75 1.68-7.04 2.16-14.33 7.18-18.63 13-2.29 3.15 1.82 10.72 2.49 16.32.37 3.2-.42 6.58-.66 9.85-22.53-1.82-23.78 18.76-29.51 31.35-7.63 16.73-31.37-2.92-34.21 18.18 2.73 2.22 5.48 4.43 8.22 6.66-2.73 1.1-5.48 2.21-8.22 3.26-3.3 3.32-6.63 6.64-9.92 9.92-4.73 17.48-17.67 20.22-33.48 20.15-9.81-.05-9.74 1.34-17.33 23.26-.9 2.56-2.56 5.94-4.73 6.83-9.92 4.01-20.49 6.47-30.16 10.95-11.86 5.48 6.83 25.65-11.51 27.69-22.39 2.46-.99 11.95-3.47 16.26-13.1 22.63-30.39 29.73-57.08 18.3-11.82-5-16.97-3.78-24.42 3.97-5.5 5.71-6.83 6.93 2.24 12 15.66 8.7 14.24 11.49 1.88 19.41-12.77 8.22-26.05 10.61-40.66 9.73-17.1-1.1-27.23 6.49-29.25 24.02-.54 4.62-1.94 9.1-2.96 13.65-30.97-8.11-37.17 34.9-66.21 32.17-4.82-.42-11.54 5.36-15.24 10.02-10.73 13.34-26.59 15.45-40.23 22.44-14.08 7.29-25.14 16.2-42.76 17.67-14.24 1.16-30.53 20.34-40.76 16.79-5.36-1.87-10.58-3.21-15.78-4.37-137.03 51.46-275.16 78.8-415.05 88.29-.79.48-1.65.82-2.39 1.34-19.03 13.17-44.02-6.36-58.27 15.74-25.85-2.86-50.53 2.86-75.18 9.79-32.66 9.2-66.05 11.13-99.94 10.61-11.78-.17-23.52 7.69-35.57 8.86-12.71 1.28-29.59 3.78-37.85-2.75-14.84-11.77-20.96 8.97-33.44 3.85-11.77-4.83-29.45-10.6-37.79-5.3-17.03 10.78-26.86 3.03-38.81-5.25-19.74 16.51-44.02-13.28-63.64 6.18-1.21 1.22-4.6.7-6.86.29-24.25-4.48-45.95-18.93-73.91-7.92-13.42 5.3-35.75-.82-49.23-9.39-25.82-16.37-55.58-4.71-82.05-17.89-22.96-11.37-50.86-12.35-75.38-21.22-47.47-17.14-97.2-25.42-143.95-47.4-44.34-20.8-87.54-43.88-131.95-64.05-36.73-16.68-72.62-35.61-103.97-58.76-35.4-26.12-74.15-47.26-108.03-75.37-9.56-7.92-20.31-14.46-30.92-20.97-5.13-3.15-13.55-3.21-16.46-7.41-28.6-41.27-60.9-78.5-104.88-104.21-11.07-39.52-46.77-59.91-69.44-90.28-41.59-55.72-79.46-114.41-108.67-177.71-16.61-35.97-32.75-72.28-48.67-108.59-12.21-27.86-17.11-59.04-23.86-89.13-7.5-33.34-9.91-68.37-21.52-100.14-5.8-15.84-8.23-30.3-8.31-45.99-.29-69.3.55-138.66-.6-207.97-.29-17.13 7.9-35.89-5.84-51.92-1.13-1.34-1.01-5.9.11-6.66 15.52-10.66 11.72-28.66 17.57-42.39 12.08-28.29 8.68-58.41 15.88-87.12 7.09-28.29 16.66-56.77 24.55-84.62 6.96-24.6 9.82-50.99 21.77-74.95 18.39-36.85 33.03-75.44 51.16-112.63 13.85-28.42 27.64-57.75 40.34-87.15 8.77-20.29 16.74-40.94 35.25-54.69 13.91-10.32 7.35-28.4 19.77-41.99 26.08-28.52 45.89-62.86 67.56-95.29 7.63-11.4 14.49-23.72 19.18-36.56 2.18-5.93 4.32-17.42-9.34-17.56 6.8-28.01 6.78-27.23 33.36-21.81 5.9 1.2 16.73-2.39 19.07-6.97 4.63-9.05 4.96-20.34 7.06-30.69-3.31-4.05-10.15-10.7-9.39-11.74 9.88-13.42 17.33-31.1 39.13-27.91 5.02-25.5 14.15-34.63 39.66-39.64 1.96-5.95 3.92-7.47 5.87-8.99.62 2.09 2.27 5.53 1.65 5.99-2.08 1.58-4.96 2.09-7.52 3v9.92c4.94 0 13.55 1.53 14.29-.23 8.96-21.44 29.79-32.35 46.36-43.15 22.21-14.47 40.57-31.94 57.54-50.73 34.66-38.33 78.78-63.89 118.93-94.93 42.25-32.68 89.11-58.7 129.65-93.51.82-.71.09-3.18.09-4.83-7.18 2.22-14.29 4.73-21.56 6.58-5.64 1.44-11.44 2.19-17.19 3.18 18.29-24.9 22.61-24.28 38.75-9.76 29.1 3.29 49.95-15.21 72.54-28.19 53.19-30.52 107.23-58.79 164.49-81.47 45.48-17.98 90.86-35.99 137.26-51.38 58.59-19.43 116.56-40.99 178.69-47.37 12.05-1.25 26.18-3.27 34.95-10.36 11.74-9.48 23.51-9.61 36.14-8.99 21.05 1 41.53.01 58.72-13.84 16.29-13.11 34.83-5.33 52.02-5.54 24.25-.28 47.52-.65 68.31-15.21 3.64-2.56 10.66-6.22 12.33-4.82 28.71 23.92 64.82 1.56 97.22 17.28 22.72 11.04 55.18 1.17 83.2 2.5 17 .79 36.31-8.14 50.69 9.33 1.33 1.61 6.67 1.13 9.57.06 15.55-5.67 29.19-9.13 46.92-1.1 13.7 6.21 32.73-.6 48.94 1.62 39.98 5.45 79.52 13.62 118.22 25.39 4.4 1.34 10.97 5.2 12.9 3.58 28.9-24.39 45.5-3.15 65.93 14.36 10.81 9.25 27.89 12.86 42.76 15.34 40 6.69 76.2 21.67 113.11 38.38 27.17 12.31 55.16 25.76 85.56 33.28 17.25 4.26 36.42 14.1 53.39 26.73 40.71 30.33 89.73 48.29 129.85 80.4 9.92 7.92 20.23 15.4 29.73 23.77 8.65 7.64 15.29 21.14 24.86 23.4 20.49 4.8 30.84 20.8 45.59 31.97 16.19 12.25 33.85 22.58 49.61 35.3 7.78 6.29 11.61 17.31 19.12 24.11 53.04 47.84 98.35 103.32 136.05 162.65 34.55 54.36 73.27 107.2 99.17 166.62 25.64 58.86 50.64 118.27 63.37 181.82 1.45 7.26 7.35 13.55 9.45 20.77 4.33 14.87 9.36 29.11 11.26 45.22 4.03 34.36 3.13 69.67 17.7 103.03 6.05 13.87 1.44 32.59.85 49.08-.42 11.83-.46 22.86 11.06 30.19 8.56 5.45 9.17 11.15.36 17.55-13.06 9.44-10.78 16.86-3.15 31.71 6.97 13.54 4.79 37.47-3.06 51.33-8.03 14.19 16.68 21.51 3.41 27.41-18.18 8.05 6.07 16.8-3.41 26.26-6.19 6.18-3.97 21.03-4.99 32.06-2.5 26.7 10.3 7.74 17.67 5.98 3.12-.76 6.59-.39 9.87-.05 3.06.31 6.3.82 8.94 2.21.68.36-.05 6.18-.99 6.44zm-28.05 127.01c-2.07 1.58-4.94 2.1-7.51 3.03 1.96-5.94 3.91-7.52 5.87-9.03.6 2.1 2.27 5.54 1.64 6.01zm-409.09 716.52l-3.52-3.49c1.14-2.1 2.33-4.26 3.52-6.41 1.1 1.1 3.27 2.44 3.1 3.26-.53 2.33-2.01 4.43-3.1 6.64zM520.57 806.02c1.1 2.21 2.58 4.32 3.1 6.66.17.82-2.01 2.16-3.1 3.26-1.2-2.15-2.39-4.31-3.54-6.38 1.33-1.33 2.42-2.43 3.54-3.54zm298.89-276.04c1.33 1.31 2.44 2.42 3.54 3.52-2.21 1.1-4.33 2.58-6.66 3.1-.82.17-2.15-2.01-3.26-3.1 2.15-1.19 4.31-2.38 6.38-3.52zm28.32-21.25c1.1 2.21 2.58 4.31 3.1 6.66.19.8-2.01 2.15-3.1 3.24-1.19-2.15-2.38-4.29-3.54-6.38 1.33-1.31 2.43-2.42 3.54-3.52zm2528.78 741.82c2.55-13.79-4.09-29.03-5.02-43.75-1.05-16.43 1.81-33.34-.82-49.44-2.73-16.82-5.7-35.12-11.2-49.79-7.69-20.48-2.78-41.55-10.16-60.14-16.89-42.62-16.66-91.52-47.26-129.13-1.62-1.99.49-6.63-.34-9.72-4.79-17.79-8.71-35.97-15.32-53.1-6.6-17.03-22.52-32.93-22.67-49.43-.2-23.37-32.11-30.89-22.55-55.69-23.21-9.33-17.45-35.58-30.63-52.09-32.03-40.15-59.12-84.22-88.63-126.42-17.08-24.43-34.67-48.52-52.57-72.35-18.83-25.08-49.85-38.08-65.98-65.99-4.31-7.48-19.77-.06-19.95-16.14-.08-5.02-13.99-9.33-20.73-14.98-7.55-6.36-13.84-14.19-21.2-20.82-30.05-27-57.44-58.39-91.29-79.34-34.15-21.13-57.57-59.81-101.94-64.34-42.76-33.85-94.65-50.7-141.99-76.05-24.35-13.03-47.27-32.52-73.17-37.88-27.6-5.71-48.56-33.93-80.25-22.87-.66.25-2.07-2.53-3.46-3.26-48.59-25.42-103.27-30.83-155.27-43.31-43.85-10.53-87.57-31.23-135.15-21.48-16.14-16.17-37.62-5.1-55.09-10.76-16.9-5.5-33.11-8.39-50.66-9.65-18.52-1.31-39.74 9.79-55.38-9.2-15.5 20.48-30.58 3.86-46.5.6-7.43-1.51-19.88 9.48-24.12 6.47-19.94-14.19-44.45-11.83-61.06-5.48-32.32 12.34-63.97 5.19-95.67 8.21-13.93 1.33-29.82-5.42-40.43 9.73-13.88-17.44-26.39 6.83-41.81 1.17-13.1-4.8-29.37-1.03-44.25-.94-1.47.02-3.01.68-4.37 1.34-32.32 15.8-70.19 8.68-102.98 27.06-15.21 8.53-38.39 1.61-57.37 4.96-17.95 3.15-35.04 14.86-52.69 15.32-49.58 1.31-92.03 26.41-138.53 37.71-42.8 10.39-85.36 25.7-124.6 45.59-35.68 18.09-75.03 27.61-108.63 48.73-15.78 9.93-28.86 24.17-48.32 27.26-23.57 3.77-31.66 26.58-48.6 38.38-4.9 3.41-11.04 6.46-16.83 6.87-20.9 1.56-33.06 16.34-48.4 27.58-14.36 10.5-35.38 11.89-49.81 22.35-31.63 22.96-63.55 45.39-96.79 65.9-31.15 19.23-58.78 42.78-87.43 65.34-29.82 23.49-61.82 44.17-89.13 71.13-11.2 11.07-26.02 18.53-36.91 29.82-21 21.81-40.65 44.94-60.19 68.08-3.69 4.39-6.13 11.32-6.13 17.07 0 31.66-23.14 40.82-46.07 54.18-29.6 17.27-63.63 34.08-63.56 77.33 0 3.26-3.87 6.52-5.95 9.76-9.86-14.83-15.73-1.99-20.75 3.95-5.88 6.98-9.16 16.05-14.41 23.61-8.96 12.91-26.91 25.9-26.14 37.9 1.44 22.7-17.74 22.67-25.58 34.05-4.31 6.26-6.7 13.79-10.76 20.25-6.63 10.55-12.57 22.02-21.18 30.73-22.68 22.98-38.09 48.94-43.92 81.16-2.97 16.4-5.97 35.66-16.16 47.37-35.51 40.82-62.39 85.48-72.08 138.83-2.71 14.89-37.32 20.66-12.05 42.7-5.99 10.3-11.4 21.02-18.11 30.83-9.35 13.7 24.77 20.93 5.58 33.36-13.03 8.45 4.67 27.54-14.8 31.77-14.23 3.1 2.78 22.98-13.35 27.57-7.29 2.07-5.68 6.97-1.37 14.07 4.49 7.38 7.23 21.51 3.12 27.41-14.51 20.86-3.14 45.02-10.94 65.08-7.94 20.42-13.11 38.58-12.77 61.61.34 23.63-25.96 46.3-5.46 73.16 1.59 2.1 1.19 6.89.06 9.74-15.29 38.58-14.21 76.76-.57 115.94 3.93 11.3 3.93 28.9-2.43 37.82-16.25 22.73 4.68 52.4-16.69 72.63 15.55 19.75 7.93 43.18 10.56 65.05.15 1.27 2 2.84 3.41 3.37 5.44 2.29 9.98-18.12 15.17-1.28 1.97 6.36-3.21 14.81-4.52 22.44-1.89 10.84-3.51 21.81-4.49 32.76-.16 1.7 3.58 3.8 5.51 5.78 1.37-2.73 2.56-5.59 4.15-8.21 1.95-3.21 4.23-6.24 6.37-9.33 1.16 2.8 3.12 5.59 3.34 8.45.51 6.59.16 13.23.16 19.81 13.59 9.98 13.59 19.77 0 29.73 0 4.9-.4 9.79.12 14.58.48 4.48 1.95 8.91 2.98 13.34 2.28-4.31 3.85-9.33 7.12-12.65 1.55-1.57 8.23-1.34 9.32.29 13.07 19.58 10.15 41.9 10.21 63.71 18.64 22.1 19.64 53.45 39.44 75.01 1.65 1.81 1.09 6.72.05 9.68-2.47 6.93-9.07 14.1-8.02 20.17 1.36 7.86 15.71 1.68 19.85 15.74 2.99 10.09-2.15 20.51 4.37 29.38 7.39 10.08 15.23 19.98 20.89 31.01 14.71 28.49 26.56 58.62 42.73 86.21 45.6 77.87 125.75 204.76 191.58 256.76 5.14 4.08 11.17 8.45 13.78 14.1 13.28 28.62 43.89 41.62 60.12 68.14 7.6 12.42 24.39 19.29 37.14 28.56 27.95 20.34 48.29 46.16 78.15 65.17 15.78 10.02 31.55 20.04 47.34 30.13 10.42 6.58 20.85 13.24 31.6 19.35 279.01 157.78 606.62 192.82 921.74 173.17 151.24-9.5 301.2-35.44 451.07-56.96 102.75-14.73 194.96-66.21 297.56-84.45 0-.23.06-.46.05-.71-.48-9.96-9.65-23.66-.28-27.03 5.88-2.1 10.78 4.65 16.2 7.75 10.22 5.87 24.03-3.04 26.8-14.52 2.78-11.43-2.38-23.32-9.03-33.07 23.15 33.93 43.91-12.57 68.18-11.06 5.76.34 12.34-12.14 18.52-18.72 2.38-2.56 4.7-5.25 7.01-7.86 16.28 15.74 22.42-7.29 34.36-9.33 13.47-2.29 25.76-14.64 40.12-2.63 4.94-7.35 9.65-14.81 14.89-21.92 8.93-12.06 29.7-8.63 33.81-30.02 2.35-12.29 30.24-9.85 29-31.71-.08-1.64 7.63-5.42 11.61-5.25 20.06.71 38.86.23 52.17-19 2.22-3.21 12.49-1.64 18.89-.93 5.94.7 8.93 16.03 18.07 2.97 4.66-6.64 11.47-11.77 17.31-17.67-2.3-1.74-4.4-3.89-6.95-5.24-3.94-2.04-8.19-3.51-12.29-5.25 2.64-1.57 5.16-4.2 7.97-4.54 9.53-1.24 20.25.59 28.39-3.27 5.07-2.38-9.64-10.89 1-20.8 22.3-20.74 44.66-40.8 71.52-55.43 16.37-18.01 32.6-36.14 49.17-53.98 7.07-7.58 9.79-4.08 10.49 4.6.22 2.92 2.26 5.67 3.48 8.45 11.47-7.27 23.71-13.74 33.79-22.61 2.01-1.74-4.94-12.76-6.44-19.75-.91-4.14-.74-9.98 1.54-13.17 9.1-12.83 22.72-21.11 29.51-37.42 2.92-7 18.19-12.06 22.75-24.43 1.44-3.91 12.79-4.54 13.73-8.21 3-11.66-6.72-11.14-14.67-12.99-2.35-.52-3.07-8.11-4.54-12.42 5.34-1.7 10.83-4.96 16-4.56 3.95.29 7.12 6.59 11.38 7.94 8.73 2.8 15.21-5.42 11.77-14.81-1.02-2.8-5.11-4.37-6.67-7.17-4.49-7.98-5.4-18.01 6.36-16.85 31.87 3.15 45.65-18.42 60.35-39.86 11.47-16.74 20.35-36.9 35.55-49.08 18.07-14.46 13.51-37.37 29.48-53.57 19.77-20.05 33.13-48.49 42.55-75.66 4.48-12.93 11.34-21.79 17.84-32.46 5.84-9.5 41.76-5.42 15.3-30.83-.48-.46 1.7-5.08 3.58-6.3 7.71-5.13 15.44-10.36 23.75-14.33 18.32-8.86-1.13-17.73.6-26.41.57-2.86 2.02-7.04 4.17-7.88 7.8-3.09 16.08-5 24.17-7.34-15.8-8.28-.09-15.04 1.76-21.91 1.2-4.49 7.55-7.34 10.76-11.54 4.29-5.65 9.7-11.43 11.35-17.96 11.34-44.76 43.68-80.54 50.44-128.04 5.85-41.16 26.95-79.63 26.33-122.7-.09-6.01 2.1-12.23 4.25-17.94 4.79-12.9 12.14-25.13 14.81-38.36 2.56-12.71 2.93-26.87-.09-39.34-3.13-12.94 16.94-24.4.93-36.68 15.06-10.63 9.33-26.46 9.36-40.37.02-14.33-.22-29.25-4.08-42.86-4.99-17.67 10.21-25.88 13.98-39.04 1.74-6.11.29-13.13.29-19.74v-49.54c0-16.51-2.33-33.47.66-49.42 2.92-15.49-8.25-27.4-5.31-43.16z"/><path class="fil0" d="M941.97 453.68c-1.91 1.56-3.85 3.14-5.76 4.68 1.62-2.3 2.93-4.06 4.39-6.07.45.46.91.93 1.37 1.39zm-4.41-4.41c.74.74 1.48 1.47 2.22 2.21-5 4.96-6.8 4.08-6.63 3.75 1.16-2.16 2.87-4 4.4-5.96zM475.95 869.9c-1.93 1.58-3.86 3.14-5.78 4.68 1.76-2.38 3.12-4.19 4.48-5.95.43.42.86.85 1.3 1.27zm-4.43-4.42c.74.74 1.48 1.48 2.21 2.22-4.99 4.96-6.78 4.06-6.59 3.74 1.16-2.13 2.87-4 4.39-5.96zM47.89 2067.66c2.6-5.07 4.62-9.03 6.64-12.99 1.65 5.76 4.34 11.47 4.6 17.3.19 4.09-2.95 8.28-4.6 12.42-2.2-5.53-4.4-11.07-6.64-16.73zm-8.23-52.63c-13.59-9.96-13.59-19.75 0-29.73v29.73zm2770.87 525.23c1.53 1.98 3.06 3.97 4.59 5.88-2.09.65-5.54 2.27-6.01 1.64-1.57-2.04-2.09-4.9-3-7.52h4.42zm128.01-110.39c-1.33-1.34-2.43-2.46-3.54-3.57 2.21-1.1 4.32-2.56 6.66-3.09.82-.17 2.16 1.99 3.26 3.09-2.15 1.23-4.31 2.39-6.38 3.57zm156.56-200.34c1.14-2.04 2.33-4.2 3.52-6.35 1.1 1.1 3.27 2.44 3.1 3.26-.53 2.33-2.01 4.43-3.1 6.64-1.1-1.1-2.21-2.21-3.52-3.55zm58.05-100.49c2.21-1.1 4.33-2.63 6.66-3.13.82-.17 2.16 2.04 3.26 3.13-2.19 1.05-4.31 2.56-6.66 3.09-.8.19-2.15-2.04-3.26-3.09zM63.64 2103.46c-1.15-1.17-3.26-2.8-3.05-3.15 1.16-2.16 2.87-4.03 4.39-6.01 1.48 1.51 2.95 2.98 4.43 4.43-1.92 1.57-3.86 3.15-5.77 4.73zm2702.81 357.53v9.92c-3.24 0-6.83.86-9.65-.23-3.17-1.23-5.67-4.2-8.46-6.42 2.8-1.1 5.51-2.61 8.4-3.14 3.15-.52 6.47-.12 9.71-.12zm133.58-126.78c-7.57-3.14-10.3-4.31-13.02-5.42 2.84-2.15 5.4-5.36 8.6-6.18 2.26-.63 5.36 1.93 8.08 3.03-1.5 3.51-3 7.01-3.66 8.57zm199.53-305.36c8.73-1.99 13.39-4.56 16.85-3.38 3.04.99 4.73 6.11 7 9.39-3.07 0-6.29.57-9.2-.12-3.58-.82-6.93-2.69-14.64-5.88zm-323.19 422.22v9.92h-9.92c3.3-3.26 6.61-6.58 9.92-9.92zM545.36 791.7c1.94-1.54 3.91-3.06 5.87-4.59.62 2.09 2.25 5.54 1.65 6.01-2.09 1.56-4.96 2.07-7.52 3v-4.42zm23.98-16.21c-1.16-1.14-3.27-2.77-3.07-3.14 1.17-2.15 2.89-4 4.42-5.96l4.42 4.42c-1.93 1.56-3.86 3.12-5.76 4.68zm5.76-19.01h9.91c-3.3 3.3-6.61 6.61-9.91 9.92v-9.92zm9.92 0c3.31-3.3 6.61-6.61 9.92-9.92l-9.92 9.92zm9.91-9.92c3.31-3.3 6.61-6.61 9.92-9.9-3.3 3.29-6.61 6.6-9.92 9.9zm9.92-9.9c3.31-3.3 6.61-6.61 9.92-9.91-3.3 3.3-6.61 6.61-9.92 9.91zm639.96 1002.91l-3.75 3.72h-1.88v1.93h-1.87c0 1.22-.63 1.87-1.87 1.87l-1.89-1.87c-8.74 5.02-27.49 8.11-56.22 9.37v1.87h-20.62c-3.75 0-6.27-.63-7.49-1.87h-13.13l-1.87-1.91-11.26 1.91-7.49 1.87h-9.37c-3.74 1.22-8.14 1.87-13.11 1.87h-22.5l-1.87 1.87-3.74-1.87h-22.5l-3.75-1.87h-46.84l-1.88 1.87-3.74-1.87c-3.75 0-6.89-.63-9.36-1.87v7.47c2.47 3.72.6 33.75-5.64 89.93l3.74 18.76 1.9 3.74c2.47 13.74 3.09 27.5 1.87 41.27 0 4.96-.66 8.11-1.87 9.33-2.53 2.56-3.77 6.29-3.77 11.24l3.77 5.65v20.59c-1.27 6.29-1.9 15.03-1.9 26.29l-1.87 13.11h-5.62c3.75 3.72 5.62 10.61 5.62 20.57l-1.87 43.13c-2.53 27.5-3.14 47.51-1.89 59.98v16.83c0 2.56.62 4.43 1.89 5.65v16.85l-1.89 11.24v11.26c0 13.76.62 23.72 1.89 29.96 0 3.78.62 6.3 1.87 7.52v9.37l3.77 9.39 3.74 7.46c1.22 12.52-.65 35.61-5.64 69.36-1.25 0-1.87.65-1.87 1.87h63.72c2.5-1.22 12.48-1.87 29.99-1.87l28.12 1.87 26.22 3.72 3.75-1.85 3.75-1.87c1.22-1.22 5.62-1.87 13.11-1.87l3.75 1.87c0 1.28.62 1.87 1.87 1.87l1.88-1.87h14.98l3.75 1.87v3.78c2.48-3.78 6.24-5.02 11.24-3.78 12.48 2.56 21.85 3.15 28.12 1.85h5.62l1.87-1.85h5.62l3.75 1.85c2.49 1.3 6.84.71 13.11-1.85h3.75l3.75-1.87 1.87-1.87h5.62c6.24 0 13.11.94 20.62 2.8 7.49 1.87 12.48 3.51 14.98 4.73l3.77 1.87c1.22 1.22 1.87 5 1.87 11.24l3.74 1.87 1.87 3.72c-1.25 1.3-1.87 5.02-1.87 11.26 0 6.3-1.25 14.39-3.74 24.37 0 1.27-1.27 3.15-3.75 5.65l-7.49 5.59h-5.62v1.87h-3.75c-7.51 2.5-30.64 4.96-69.34 7.52l-1.88 1.85-1.87-1.85h-9.37l-3.74 1.85-3.75-1.85h-3.75c-3.74 0-6.87-.65-9.37-1.87h-9.36l-3.75-1.93h-20.62l-9.36 1.93h-11.26c-3.74 1.22-8.76 1.87-15 1.87h-39.35c-2.52-2.56-5-2.56-7.49 0h-1.88l-1.87-1.87h-15v1.87l-3.75-1.87c-3.74-1.28-20.6-1.93-50.59-1.93h-16.86l-1.88 1.93-1.87-1.93h-1.87l-33.75-5.59-7.49-1.87h-9.37l-18.75-3.72c-3.74 0-5.61-.65-5.61-1.93h-3.75v-1.87h-3.75c-1.25 0-1.88-.59-1.88-1.85v-1.87c-3.74-2.52-5.61-4.37-5.61-5.65h-1.88c-1.25-1.24-1.87-5.61-1.87-13.11 0-1.24-1.27-4.37-3.75-9.33-1.25-3.78-3.15-6.87-5.62-9.39v-7.52h-1.87v-7.46h-1.87c-2.53 0-2.53-1.22 0-3.78v-5.59c-5-28.74-8.76-96.25-11.26-202.44l-3.74-3.74c0-4.94.6-9.37 1.87-13.11v-24.37c-1.27-2.5-1.87-6.22-1.87-11.24 0-5 .6-9.37 1.87-13.11v-11.24l3.74-59.98c0-6.24.63-11.89 1.87-16.9 1.23-3.74 1.88-8.69 1.88-14.98 0-16.22-.65-31.2-1.88-44.94l-1.87-35.61v-33.75c-1.25-13.76-1.87-29.39-1.87-46.87 0-18.76.62-34.97 1.87-48.73v-52.46c-1.25-1.22-1.87-3.78-1.87-7.52 0-4.94.62-8.74 1.87-11.24v-29.96c-1.25-1.22-1.87-3.09-1.87-5.65 0-2.46.62-4.37 1.87-5.59v-3.78c1.23-11.2 1.87-26.83 1.87-46.81h-1.87l1.87-13.17c1.23-9.95 1.88-39.34 1.88-88.06V1361l-1.88-5.62c0-3.74.63-6.86 1.88-9.37v-5.62l7.51-91.83c0-19.97 1.24-36.23 3.74-48.74 0-8.73.6-16.22 1.87-22.49l3.75-26.24c0-8.73.62-13.73 1.89-14.98-2.52-2.5-3.75-4.37-3.75-5.62h-1.88c-2.5-11.26-2.5-18.1 0-20.62l1.88-3.75 3.75-5.62v-1.88h1.87l1.88-3.74c4.97-4.99 8.11-9.99 9.36-15l3.77-3.75h28.09c7.51 0 13.74.65 18.75 1.89 4.97 1.25 10.6 1.87 16.87 1.87 3.75 0 6.86-.62 9.37-1.87h7.49l24.37 1.87h26.24l1.87-1.87h67.47l31.86 3.74c2.49 0 4.36-.6 5.62-1.87l3.74-1.87c2.5-1.24 7.51-1.89 15-1.89 2.5 0 4.37.65 5.64 1.89 0 1.25 1.22 1.87 3.74 1.87l1.88-1.87h18.73l3.75 1.87v1.87c2.49-2.49 7.49-3.09 15-1.87l16.86 1.87 18.73-1.87h20.62c4.97 1.27 10.61 1.27 16.88 0h3.74l3.75-1.87 3.74-1.89 1.89-1.87h3.75c7.49 0 15.27.94 23.43 2.81 8.09 1.87 14.05 3.46 17.79 4.68l3.75 1.88c1.24 0 1.89 3.12 1.89 9.37l3.74 1.87 3.75 3.74c-1.27 1.27-1.87 6.29-1.87 15l-3.75 20.62c-6.27 6.27-10.64 9.37-13.13 9.37h-1.87v1.87h-3.75v1.88h-3.75c-8.76 2.52-36.86 5-84.34 7.49l-1.87 1.88-3.74-1.88c-2.52 0-4.4.65-5.62 1.88h-15c-2.52 0-3.75-.63-3.75-1.88h-24.37c-1.25-1.22-3.13-1.87-5.61-1.87h-24.37l-13.13 1.87h-13.11c-5.02 1.25-11.24 1.88-18.75 1.88h-46.86c-2.5-2.5-5-2.5-7.49 0h-1.87c-1.27 0-1.88-.63-1.88-1.88h-18.73v1.88l-3.75-1.88c-6.27-1.22-18.13-1.87-35.61-1.87 1.23 1.25 1.87 3.75 1.87 7.49 2.5 17.51 3.77 49.39 3.77 95.58 0 22.5-.66 41.88-1.87 58.1-1.27 16.26-1.9 33.74-1.9 52.49l-1.87 13.1 1.87 15.01v95.58l-1.87 41.22c0 5 .29 8.77.94 11.26.62 2.52.93 4.39.93 5.61v14.97c0 3.78.63 6.29 1.9 7.51v7.54c1.2 14.97 1.87 49.99 1.87 104.91h7.49c2.49 1.28 5.62 1.91 9.37 1.91h28.11c8.73 1.24 13.11 1.24 13.11 0h7.51c3.75-1.22 11.24-1.91 22.49-1.91h20.62l20.62 3.78 3.75-1.87 1.87-1.91c1.22-1.22 4.36-1.87 9.36-1.87l3.77 1.87c0 1.28.6 1.91 1.87 1.91l1.87-1.91h11.24l3.75 1.91v1.87c2.49-2.5 5.62-3.09 9.36-1.87 7.51 1.24 15 1.24 22.5 0h5.62l1.87-1.91h3.75l1.87 1.91c4.97 0 9.37-.63 13.13-1.91l7.49-3.74v-1.87h3.75c6.24 0 11.86.65 16.86 1.87l11.24 3.74 3.75 3.78v9.39l3.74 1.87v1.85h1.88l-3.75 33.76c0 1.22-1.25 3.09-3.74 5.59zm768.4 492.94l-11.26 14.98c0 1.27-4.39 6.22-13.13 14.96 1.25 0 1.89.65 1.89 1.87-2.52 1.28-4.7 3.15-6.56 5.65-1.87 2.52-3.44 5.02-4.68 7.46l1.87 1.87-13.11 13.17c-33.75 31.24-73.42 55.61-119.01 73.09-45.62 17.48-92.77 26.22-141.51 26.22-16.25 0-39.34-2.5-69.33-7.52l-7.51-1.85c-12.49-7.52-26.56-17.14-42.16-29.03-15.65-11.89-27.18-22.21-34.67-30.95-8.77-11.24-19.38-27.46-31.86-48.72-6.27-9.98-16.57-25.95-30.93-47.8-14.38-21.85-24.68-40.93-30.92-57.13l-15-59.97c-14.98-67.51-25.3-124.05-30.92-169.62-5.62-45.64-8.43-91.51-8.43-137.79 0-33.74 2.49-88.65 7.49-164.89 1.24-3.79 1.88-9.37 1.88-16.9-1.27-3.74-1.88-8.11-1.88-13.11 0-4.96.62-10.61 1.88-16.85 1.24-6.24 2.49-10.61 3.74-13.11v-45c0-4.97.62-8.09 1.89-9.37 1.22-1.23 1.87-3.09 1.87-5.61 0-18.76 2.48-45.6 7.5-80.6h-1.88l5.62-22.49c18.75-59.97 49.34-123.69 91.85-191.16 17.47-28.73 29.98-51.23 37.48-67.47 3.74-7.49 23.1-23.72 58.1-48.73l3.74-5.62 20.62-9.36c51.23-19.98 99.34-29.99 144.31-29.99 23.72 0 44.66 3.12 62.78 9.36 18.1 6.27 38.42 16.25 60.93 29.99 22.49 15 35.6 26.24 39.35 33.73l9.36 7.51c3.77 5 5.64 8.14 5.64 9.36l-1.87 1.89c2.49 2.52 4.97 5.62 7.49 9.36 2.49 3.75 4.37 6.27 5.62 7.51 0 2.52.62 4.39 1.87 5.62v3.75l5.62 14.98c1.24 3.75 2.18 6.27 2.81 7.51.62 1.27 1.54 3.14 2.81 5.62v5.62c0 2.52.63 4.39 1.88 5.64l1.87 5.61c0 3.75-3.46 8.76-10.32 15-6.87 6.27-10.93 8.15-12.17 5.62-13.76-6.22-22.49-13.13-26.24-20.62 0-1.24-.65-1.24-1.88 0-1.25 1.27-1.87 1.27-1.87 0-1.25 0-3.13-1.87-5.62-5.61l-7.49-7.51-28.12-18.75c-13.76-8.73-23.74-16.22-29.98-22.49-41.23-37.48-79.35-56.23-114.33-56.23-33.73 0-68.72 18.13-104.94 54.36-7.51 6.25-18.13 25.62-31.86 58.1-33.75 78.72-53.13 142.44-58.1 191.18l-1.88 18.72v20.62c-7.49 119.97-12.49 219.92-15 299.89-1.27 33.7-1.87 85.57-1.87 155.52l5.62 22.49 3.75 11.26 1.87 3.72c4.99 20.06 8.73 43.13 11.24 69.37 2.5 7.51 2.5 13.11 0 16.83-1.25 3.8-.63 10.04 1.89 18.78l3.74 5.59c0 2.56 6.24 26.92 18.75 73.14l5.62 20.59c-2.52-4.96-5.02-6.24-7.51-3.74 0 2.52.62 4.37 1.88 5.61 8.73 7.51 15.6 19.99 20.62 37.53 3.74 9.96 6.24 15.61 7.49 16.85 21.22 46.22 43.72 81.25 67.48 104.91 7.49 10.02 13.73 15.68 18.73 16.9l7.51 3.74 5.62 3.74c15 6.3 23.1 9.39 24.36 9.39 4.99 1.27 13.13 1.85 24.37 1.85 13.74 0 23.1-1.22 28.11-3.74 8.73-3.72 21.85-13.1 39.37-28.08 42.46-38.72 69.34-65.58 80.59-80.62l24.37-35.61 15-22.5 15-24.36c1.22-3.74 2.8-5.61 4.68-5.61 1.87 0 4.03 1.28 6.55 3.74l3.75 1.87 9.37-16.85 11.24-11.26c1.24-1.22 1.24-1.85 0-1.85 9.99 12.46 16.86 25 20.6 37.47 1.25 5.02 1.89 11.26 1.89 18.76 0 20-5 36.85-14.98 50.61zm556.59-138.73c0 7.52.62 11.26 1.89 11.26 1.22 0 1.87-3.1 1.87-9.39-2.52-16.2-.65-41.21 5.62-74.97 1.24-7.46 2.16-14.04 2.81-19.63.62-5.65 1.56-9.68 2.81-12.19 7.49-62.49 11.24-126.19 11.24-191.18 0-30.02-.63-52.46-1.87-67.51l-1.88-52.46-5.62-39.33-1.87-14.98 1.87-18.76c-2.5-22.5-3.74-33.11-3.74-31.89-6.27-52.45-12.51-94.28-18.75-125.54-3.74-18.75-7.49-33.08-11.24-43.11-3.74-9.98-7.49-19.35-11.24-28.11-1.25-3.75-2.52-7.18-3.75-10.32-1.25-3.1-2.52-5.3-3.74-6.55-3.75-9.99-12.51-39.98-26.24-89.96-10.02-34.96-15.65-53.1-16.88-54.35l-16.86-50.61c0-6.24-.65-10.59-1.87-13.13-1.27-1.22-2.52-4.36-3.74-9.36-1.27-4.99-2.53-8.12-3.77-9.37-25-7.49-44.97-11.24-59.97-11.24-32.51 0-59.35 20.62-80.59 61.85-52.46 106.21-83.72 216.79-93.71 331.72-8.74 86.22-13.11 171.8-13.11 256.77 0 43.72.62 76.25 1.88 97.47 2.49 12.46 3.74 25 3.74 37.47l5.62 39.35c16.23 74.95 36.23 146.19 59.98 213.68 23.71 67.44 44.97 113.65 63.72 138.66 24.96 30.02 52.46 45 82.45 45 3.75 0 11.86-1.22 24.36-3.78 8.73-2.46 16.23-9.98 22.49-22.44 13.76-18.78 24.37-35.61 31.88-50.59 1.22-5.02 2.81-8.45 4.68-10.32 1.87-1.93 2.81-3.44 2.81-4.73l9.37-18.7 1.89-9.39c3.74-11.26 13.11-44.35 28.11-99.32l3.74-11.26 3.75-13.11 1.87-5.65zm-59.97-998.91c8.73 0 19.37 5.62 31.86 16.86 6.24 5.02 10.59 7.49 13.13 7.49 2.47 0 4.36 1.88 5.62 5.64l5.62 7.49 1.87-1.87 9.37 16.86c1.22 0 1.87-.62 1.87-1.88h1.88c1.22 1.27 2.49 2.83 3.74 4.69 1.24 1.87 3.1 4.68 5.62 8.43 31.21 61.24 58.1 145.88 80.6 253.94 22.47 108.09 37.47 222.76 44.97 343.94l1.87 16.85c1.23 17.48 1.23 42.78 0 75.89-1.25 33.17-2.52 59.69-3.74 79.68-1.27 20-5 46.22-11.24 78.69-12.53 66.29-26.89 123.1-43.12 170.55-10.01 26.24-21.25 50.59-33.73 73.1-28.76 50.01-61.85 87.49-99.34 112.49-37.48 24.96-78.08 37.48-121.82 37.48-17.51 0-35.6-1.93-54.33-5.65-57.5-12.48-110.59-54.33-159.32-125.56-2.52-3.72-6.27-9.67-11.24-17.82-5-8.11-9.37-17.5-13.13-28.11-3.75-10.61-8.14-24.06-13.11-40.26-6.27-16.28-10.02-26.3-11.24-30.02l-7.51-24.37c-1.25-4.96-2.8-9.96-4.68-14.98-1.87-4.96-3.46-9.96-4.68-14.98v-11.24c-8.76-45-15.65-88.14-20.62-129.34h-3.75v-41.2l-1.89-106.84c0-142.45 7.51-256.75 22.5-342.96l15-65.61 15-59.98 1.87-13.11c0-2.49 1.54-7.18 4.68-14.05 3.1-6.86 5.92-13.42 8.43-19.68 19.98-44.99 36.56-78.39 49.67-100.26 13.13-21.85 30.93-44.06 53.42-66.55 17.48-19.97 36.22-33.42 56.22-40.29 19.98-6.86 43.72-10.92 71.23-12.19 21.24 0 38.1 1.27 50.59 3.75l11.24 1.87 11.26 1.88v1.87h13.13c4.96 1.25 8.71 2.52 11.23 3.75 2.5 1.27 5.64 3.13 9.37 5.62h5.62zm-292.36-552.91c-37.53-1.94-74.24 1.93-109.25 11.57-137.23 37.73-276.28 165.68-256.4 288.94 5.08 31.6 21.53 63.03 47.85 91.74 7.17-29.65 17.77-58.13 31.68-84.88 41.71-80.34 158.25-137.06 158.25-137.06-44.62 36.03-80.6 78.61-107.03 126.62-12.8 23.29-32.15 58.5-38.5 108.14-.45 3.4-.8 6.81-1.1 10.27 69.53-33.53 179.77-105.54 238.14-241.95 23.28-54.35 35.49-112.63 36.36-173.39zM1081.45 804.32c19.44-14.01 40.48-24.6 62.58-31.54 86.63-27.18 205.39-6.61 237.33 66.35 8.19 18.7 10.22 41.25 6.02 65.73-14.07-13.42-29.61-25.02-46.3-34.58-50.13-28.66-132.22-18.81-132.22-18.81 36.37 3.91 70.38 14.3 101.13 30.93 14.92 8.06 37.47 20.25 58.02 44.66 1.4 1.68 2.78 3.38 4.14 5.14-48.88 6.04-132.86 5.5-211.3-47.46-31.26-21.11-57.95-48.15-79.4-80.43zm850.58-426.93c-19.24 6.41-36.91 15.58-52.6 27.3-61.51 45.96-106.18 137.6-71.95 195.61 8.77 14.87 23.21 27.41 42.1 36.66-2.24-16.31-2.52-32.69-.79-48.88 5.14-48.56 52.51-99.98 52.51-99.98-15.32 26.87-25.02 55.35-28.83 84.66-1.85 14.22-4.65 35.72 1.93 61.9.45 1.79.94 3.58 1.47 5.37 28.32-30.52 69.53-88.4 72.03-168.38.99-31.89-4.34-63.57-15.86-94.27zm-684.58 77.78c51.66-9.25 103.21-10.29 153.42-3.07 196.79 28.29 411.87 181.28 405.88 355.58-1.53 44.71-18.81 91.13-50.27 135.52-15.1-39.85-34.81-77.45-58.75-112.11-71.86-104.01-243.29-162.27-243.29-162.27 68.14 42.13 125.47 94.84 170.45 156.79 21.84 30.04 54.83 75.44 72.31 143.12 1.19 4.63 2.3 9.31 3.32 14.04-102.22-34.3-267.61-114.83-372.38-293.65-41.76-71.26-68.88-149.9-80.69-233.94z"/></g></svg>