<svg xmlns="http://www.w3.org/2000/svg" viewBox="0 0 512 512"><path fill="#0b3b7d" d="M256 0C114.616 0 0 114.615 0 256c0 141.384 114.616 256 256 256 141.385 0 256-114.616 256-256C512 114.615 397.385 0 256 0zm0 378.435c-67.51 0-122.435-54.934-122.435-122.435S188.489 133.565 256 133.565 378.435 188.499 378.435 256 323.511 378.435 256 378.435z"/><path fill="#0b3b7d" d="M256 200.348c-30.736 0-55.652 24.917-55.652 55.652s24.917 55.652 55.652 55.652 55.652-24.917 55.652-55.652-24.916-55.652-55.652-55.652zM272.696 256c-9.208 0-16.696-7.492-16.696-16.696s7.487-16.696 16.696-16.696c9.208 0 16.696 7.492 16.696 16.696-.001 9.204-7.488 16.696-16.696 16.696z"/></svg>