<svg xmlns="http://www.w3.org/2000/svg" width="407.814" height="407.814"><path fill="#0b3b7d" d="M353.985 203.905c35.145-20.995 47.049-66.379 26.508-101.954-20.54-35.575-65.794-47.957-101.547-28.017C278.336 33.001 244.985 0 203.907 0c-41.079 0-74.431 33.001-75.039 73.937-35.754-19.94-81.01-7.557-101.549 28.02-20.539 35.574-8.636 80.958 26.511 101.951-35.146 20.995-47.05 66.379-26.51 101.954 20.54 35.576 65.796 47.958 101.55 28.017.607 40.936 33.96 73.938 75.039 73.936 41.08 0 74.43-33.002 75.038-73.936 35.754 19.939 81.011 7.557 101.548-28.021 20.54-35.576 8.635-80.96-26.51-101.953zM203.907 272.65c-37.966 0-68.744-30.777-68.744-68.744s30.778-68.744 68.744-68.744c37.965 0 68.744 30.777 68.744 68.744s-30.778 68.744-68.744 68.744z"/></svg>