<?xml version="1.0" standalone="no"?>
<!DOCTYPE svg PUBLIC "-//W3C//DTD SVG 20010904//EN"
 "http://www.w3.org/TR/2001/REC-SVG-20010904/DTD/svg10.dtd">
<svg version="1.0" xmlns="http://www.w3.org/2000/svg"
 width="1278.000000pt" height="99.000000pt" viewBox="0 0 1278.000000 99.000000"
 preserveAspectRatio="xMidYMid meet">
<metadata>
Created by potrace 1.16, written by Peter Selinger 2001-2019
</metadata>
<g transform="translate(0.000000,99.000000) scale(0.100000,-0.100000)"
fill="#0b3b7d" stroke="none">
<path d="M7980 974 c-342 -33 -608 -82 -1145 -208 -747 -176 -888 -194 -1600
-203 -566 -7 -696 1 -1310 87 -974 136 -1296 166 -1680 157 -475 -11 -706 -65
-1349 -317 -394 -153 -611 -222 -828 -261 l-68 -12 0 -109 0 -108 6390 0 6390
0 0 40 c0 31 -4 40 -17 40 -33 0 -337 78 -504 129 -154 47 -256 83 -904 316
-667 240 -1185 353 -2010 436 -276 28 -1131 36 -1365 13z"/>
</g>
</svg>
