<svg xmlns="http://www.w3.org/2000/svg" width="210mm" height="297mm" viewBox="0 0 21000 29700" shape-rendering="geometricPrecision" text-rendering="geometricPrecision" image-rendering="optimizeQuality" fill-rule="evenodd" clip-rule="evenodd"><path fill="#0b3b7d" d="M8347.23 8391.54h4305.54c2377.49.16 4305.53 1928.2 4305.53 4305.69l.16 4305.54c-.16 2377.33-1928.2 4305.36-4305.69 4305.36l-4305.54.33c-2377.33-.33-4305.36-1928.36-4305.36-4305.86l-.33-4305.37c.33-2377.49 1928.36-4305.53 4305.86-4305.53l-.17-.16zM12222.18 14850c0-951.16-771.02-1722.18-1722.18-1722.18-951.16 0-1722.18 771.02-1722.18 1722.18 0 951.16 771.02 1722.18 1722.18 1722.18 951.16 0 1722.18-771.02 1722.18-1722.18zm1291.76-2368.06c0-356.7-289.18-645.88-645.88-645.88-356.71 0-645.88 289.18-645.88 645.88 0 356.71 289.17 645.88 645.88 645.88 356.7 0 645.88-289.17 645.88-645.88zm-4305.7-1937.47h2583.52c1664.25-.16 3013.93 1349.52 3013.93 3013.77l-.16 2583.52c.16 1664.08-1349.52 3013.77-3013.77 3013.77H9208.24c-1664.08 0-3013.77-1349.69-3013.77-3013.94v-2583.35c0-1664.25 1349.69-3013.93 3013.94-3013.93l-.17.16z"/></svg>