<svg xmlns="http://www.w3.org/2000/svg" width="488.198" height="488.198" viewBox="0 0 12916.88 12916.88" shape-rendering="geometricPrecision" text-rendering="geometricPrecision" image-rendering="optimizeQuality" fill-rule="evenodd" clip-rule="evenodd"><path fill="#0b3b7d" d="M4305.68 0h4305.53c2377.49.16 4305.52 1928.2 4305.52 4305.68l.16 4305.53c-.16 2377.33-1928.2 4305.35-4305.68 4305.35l-4305.53.33C1928.35 12916.56.33 10988.53.33 8611.04L0 4305.68C.33 1928.19 1928.36.16 4305.85.16l-.17-.16zm3874.95 6458.45c0-951.16-771.02-1722.18-1722.18-1722.18-951.16 0-1722.18 771.02-1722.18 1722.18 0 951.16 771.02 1722.18 1722.18 1722.18 951.16 0 1722.18-771.02 1722.18-1722.18zm1291.76-2368.06c0-356.7-289.18-645.88-645.88-645.88-356.71 0-645.88 289.18-645.88 645.88 0 356.71 289.17 645.88 645.88 645.88 356.7 0 645.88-289.17 645.88-645.88zm-4305.7-1937.46h2583.52c1664.25-.16 3013.93 1349.52 3013.93 3013.77l-.16 2583.52c.16 1664.08-1349.52 3013.77-3013.77 3013.77H5166.69c-1664.08 0-3013.77-1349.69-3013.77-3013.94V5166.7c0-1664.25 1349.69-3013.93 3013.94-3013.93l-.17.16z"/></svg>