<?xml version="1.0" encoding="UTF-8"?>
<!DOCTYPE svg PUBLIC "-//W3C//DTD SVG 1.1//EN" "http://www.w3.org/Graphics/SVG/1.1/DTD/svg11.dtd">
<!-- Creator: CorelDRAW 2019 (64-Bit) -->
<svg xmlns="http://www.w3.org/2000/svg" xml:space="preserve" width="129.169mm" height="129.169mm" version="1.1" style="shape-rendering:geometricPrecision; text-rendering:geometricPrecision; image-rendering:optimizeQuality; fill-rule:evenodd; clip-rule:evenodd"
viewBox="0 0 12916.88 12916.88"
 xmlns:xlink="http://www.w3.org/1999/xlink">
 <defs>
 </defs>
 <g id="Vrstva_x0020_1">
  <metadata id="CorelCorpID_0Corel-Layer"/>
  <path fill="#0b3b7d" d="M4305.68 0l4305.53 0c2377.49,0.16 4305.52,1928.2 4305.52,4305.68l0.16 4305.53c-0.16,2377.33 -1928.2,4305.35 -4305.68,4305.35l-4305.53 0.33c-2377.33,-0.33 -4305.35,-1928.36 -4305.35,-4305.85l-0.33 -4305.36c0.33,-2377.49 1928.36,-4305.52 4305.85,-4305.52l-0.17 -0.16zm3874.95 6458.45c0,-951.16 -771.02,-1722.18 -1722.18,-1722.18 -951.16,0 -1722.18,771.02 -1722.18,1722.18 0,951.16 771.02,1722.18 1722.18,1722.18 951.16,0 1722.18,-771.02 1722.18,-1722.18zm1291.76 -2368.06c0,-356.7 -289.18,-645.88 -645.88,-645.88 -356.71,0 -645.88,289.18 -645.88,645.88 0,356.71 289.17,645.88 645.88,645.88 356.7,0 645.88,-289.17 645.88,-645.88zm-4305.7 -1937.46l2583.52 0c1664.25,-0.16 3013.93,1349.52 3013.93,3013.77l-0.16 2583.52c0.16,1664.08 -1349.52,3013.77 -3013.77,3013.77l-2583.52 0c-1664.08,0 -3013.77,-1349.69 -3013.77,-3013.94l0 -2583.35c0,-1664.25 1349.69,-3013.93 3013.94,-3013.93l-0.17 0.16z"/>
 </g>
</svg>
