<svg height="512" width="512" xmlns="http://www.w3.org/2000/svg"><g fill="#0b3b7d"><path d="M492.799 29.615a15 15 0 00-10.414-10.414c-3.866-1.079-95.845-26.325-198.523-17.228a14.999 14.999 0 00-13.103 19.045 114.958 114.958 0 0029.217 49.727c8.758 8.758 8.758 23.009 0 31.767s-23.008 8.758-31.766 0c-20.716-20.716-35.309-46.875-42.201-75.651a14.987 14.987 0 00-7.052-9.476 14.993 14.993 0 00-11.725-1.433c-47.045 13.685-86.398 36.124-116.967 66.693-1.208 1.201-2.289 2.437-3.46 3.656a15 15 0 00-4.206 11.57c3.084 41.496 28.375 78.171 65.997 95.717a22.308 22.308 0 0111.614 12.675 22.31 22.31 0 01-.75 17.176 22.317 22.317 0 01-12.674 11.615 22.313 22.313 0 01-17.175-.75c-31.505-14.69-56.857-38.808-73.319-69.745a15.001 15.001 0 00-26.586.195C-.645 223.874-8.002 288.472 8.988 346.648c5.826 19.955 17.39 37.93 33.44 51.993 9.072 7.948 19.346 14.451 30.408 19.31l271.557-271.558c5.858-5.858 15.355-5.858 21.213 0s5.858 15.355 0 21.213L94.049 439.164c4.86 11.064 11.363 21.337 19.309 30.408a115.238 115.238 0 005.181 5.534c13.184 13.184 29.232 22.772 46.812 27.906 58.177 16.99 122.776 9.633 181.894-20.714a15.001 15.001 0 00.195-26.587c-30.936-16.461-55.055-41.813-69.745-73.319a22.313 22.313 0 01-.75-17.175 22.32 22.32 0 0111.616-12.676 22.31 22.31 0 0117.174-.75 22.305 22.305 0 0112.675 11.614c17.547 37.625 54.222 62.912 95.717 65.997a15 15 0 0011.57-4.206c1.22-1.172 2.455-2.252 3.656-3.46 30.57-30.57 53.009-69.924 66.693-116.967a15.001 15.001 0 00-10.909-18.777c-28.776-6.893-54.935-21.486-75.651-42.201-8.758-8.758-8.758-23.009 0-31.767s23.008-8.758 31.766 0a114.972 114.972 0 0049.727 29.217 15 15 0 0019.045-13.104c9.1-102.676-16.147-194.656-17.225-198.522z"/><path d="M72.835 417.951L4.393 486.394c-5.858 5.858-5.858 15.355 0 21.213s15.355 5.858 21.213 0l68.443-68.443a120.633 120.633 0 01-5.608-15.604 120.57 120.57 0 01-15.606-5.609z"/></g></svg>