<svg id="Capa_1" enable-background="new 0 0 512 512" height="512" viewBox="0 0 512 512" width="512" xmlns="http://www.w3.org/2000/svg"><g><path fill="#0b3b7d" d="m492.799 29.615c-1.411-5.054-5.36-9.003-10.414-10.414-3.866-1.079-95.845-26.325-198.523-17.228-4.453.394-8.499 2.756-11.033 6.439-2.535 3.684-3.294 8.306-2.07 12.606 5.333 18.751 15.436 35.947 29.217 49.727 8.758 8.758 8.758 23.009 0 31.767s-23.008 8.758-31.766 0c-20.716-20.716-35.309-46.875-42.201-75.651-.955-3.992-3.504-7.417-7.052-9.476-3.548-2.062-7.785-2.58-11.725-1.433-47.045 13.685-86.398 36.124-116.967 66.693-1.208 1.201-2.289 2.437-3.46 3.656-2.993 3.077-4.524 7.289-4.206 11.57 3.084 41.496 28.375 78.171 65.997 95.717 5.438 2.535 9.562 7.036 11.614 12.675 2.053 5.638 1.786 11.738-.75 17.176-2.535 5.438-7.037 9.562-12.674 11.615-5.638 2.052-11.738 1.786-17.175-.75-31.505-14.69-56.857-38.808-73.319-69.745-2.623-4.932-7.767-7.996-13.352-7.954-5.584.041-10.683 3.181-13.234 8.149-30.351 59.12-37.708 123.718-20.718 181.894 5.826 19.955 17.39 37.93 33.44 51.993 9.072 7.948 19.346 14.451 30.408 19.31l271.557-271.558c5.858-5.858 15.355-5.858 21.213 0s5.858 15.355 0 21.213l-271.557 271.558c4.86 11.064 11.363 21.337 19.309 30.408 1.673 1.909 3.401 3.754 5.181 5.534 13.184 13.184 29.232 22.772 46.812 27.906 58.177 16.99 122.776 9.633 181.894-20.714 4.968-2.551 8.108-7.65 8.149-13.234s-3.023-10.73-7.954-13.353c-30.936-16.461-55.055-41.813-69.745-73.319-2.536-5.438-2.802-11.538-.75-17.175 2.053-5.639 6.178-10.14 11.616-12.676 5.437-2.536 11.536-2.802 17.174-.75 5.639 2.052 10.141 6.176 12.675 11.614 17.547 37.625 54.222 62.912 95.717 65.997 4.281.318 8.493-1.213 11.57-4.206 1.22-1.172 2.455-2.252 3.656-3.46 30.57-30.57 53.009-69.924 66.693-116.967 1.146-3.94.628-8.177-1.433-11.725-2.06-3.548-5.485-6.098-9.476-7.052-28.776-6.893-54.935-21.486-75.651-42.201-8.758-8.758-8.758-23.009 0-31.767s23.008-8.758 31.766 0c13.78 13.78 30.975 23.883 49.727 29.217 4.3 1.223 8.922.464 12.606-2.071 3.684-2.534 6.045-6.58 6.439-11.033 9.1-102.676-16.147-194.656-17.225-198.522z"/><path fill="#0b3b7d" d="m72.835 417.951-68.442 68.443c-5.858 5.858-5.858 15.355 0 21.213s15.355 5.858 21.213 0l68.443-68.443c-2.218-5.05-4.094-10.264-5.608-15.604-5.34-1.514-10.555-3.39-15.606-5.609z"/></g></svg>
