<?xml version="1.0" encoding="UTF-8"?>
<!DOCTYPE svg PUBLIC "-//W3C//DTD SVG 1.1//EN" "http://www.w3.org/Graphics/SVG/1.1/DTD/svg11.dtd">
<!-- Creator: CorelDRAW 2019 (64-Bit) -->
<svg xmlns="http://www.w3.org/2000/svg" xml:space="preserve" width="198.624mm" height="84.3024mm" version="1.1" style="shape-rendering:geometricPrecision; text-rendering:geometricPrecision; image-rendering:optimizeQuality; fill-rule:evenodd; clip-rule:evenodd"
viewBox="0 0 19861.36 8429.79"
 xmlns:xlink="http://www.w3.org/1999/xlink">
 <defs>
  <style type="text/css">
   <![CDATA[
    .fil1 {fill:#FEFEFE}
    .fil2 {fill:#319E76}
    .fil0 {fill:#FEFEFE;fill-rule:nonzero}
   ]]>
  </style>
 </defs>
 <g id="Vrstva_x0020_1">
  <metadata id="CorelCorpID_0Corel-Layer"/>
  <g id="_2072591033312">
   <path class="fil0" d="M18163.59 2288.67c31.74,0 58.2,3.52 80.25,11.46 22.93,7.93 43.21,21.16 60.85,40.57 18.53,18.53 35.28,43.22 50.27,74.96 15.88,30.87 31.75,68.8 49.39,112.88l1186.16 3167.79c7.93,24.69 14.11,45.85 17.64,64.38 3.52,19.41 5.29,37.92 5.29,57.33 0,61.72 -18.52,107.58 -55.56,136.68 -37.05,29.1 -76.74,44.1 -117.29,44.1l-1465.72 0c-44.1,0 -82.02,-5.29 -111.99,-16.75 -29.99,-11.46 -55.56,-24.69 -75.86,-39.69 -21.16,-15.87 -37.03,-32.63 -48.49,-49.4 -10.59,-17.62 -18.53,-32.62 -22.05,-46.74l-28.23 -89.95 -725.8 0 -17.64 76.72c-5.29,26.46 -11.46,49.4 -18.52,68.79 -7.05,20.3 -15.87,37.05 -25.58,52.04 -10.57,14.11 -24.69,25.57 -43.21,33.52 -17.64,7.94 -41.45,11.46 -70.56,11.46l-266.33 0c-54.68,0 -82.91,-21.16 -82.91,-64.38 0,-15.87 3.53,-34.39 9.71,-55.56 5.29,-22.05 14.11,-46.75 23.8,-76.74l1080.33 -3268.32c25.58,-81.13 55.56,-141.09 88.19,-180.78 32.64,-39.69 78.49,-60.86 139.34,-64.38l384.52 0zm-1120.91 3149.26l558.24 0 -287.48 -1009.78 -270.76 1009.78z"/>
   <path class="fil0" d="M13588.29 2650.24c0,-59.97 4.41,-112.88 15,-157.85 10.57,-44.1 29.98,-82.02 59.97,-112 29.1,-29.98 69.67,-52.92 120.81,-68.79 52.04,-15 119.05,-22.93 201.95,-22.93l1151.76 0c100.54,0 176.38,14.98 229.3,44.1 52.03,29.1 89.08,65.26 111.12,109.34 21.17,44.1 32.63,90.84 34.4,139.34 1.75,49.39 2.64,94.35 2.64,135.81l0 2927.91c119.06,-17.64 229.29,-33.53 330.71,-46.76 43.22,-5.28 86.43,-10.57 130.51,-16.75 44.1,-6.17 84.67,-11.46 121.7,-16.76 37.05,-5.29 69.67,-8.82 99.65,-11.46 29.11,-2.65 50.28,-4.41 64.38,-4.41 29.11,0 52.92,6.17 70.56,16.76 18.52,11.46 27.34,34.39 27.34,68.79l0 237.23c0,31.75 -13.23,59.97 -39.69,87.31 -27.34,26.46 -69.67,39.69 -127.86,39.69l-2211.81 0c-81.14,0 -147.28,-7.93 -197.54,-22.93 -51.15,-15.87 -90.84,-37.92 -119.93,-67.91 -29.99,-29.1 -49.4,-66.15 -59.97,-111.11 -10.59,-44.1 -15,-97.01 -15,-156.98l0 -2989.64z"/>
   <path class="fil0" d="M12133.16 3585.93l0 2095.4c167.55,-24.69 320.12,-45.86 460.36,-65.27 58.2,-7.93 117.29,-16.75 176.37,-23.8 59.97,-7.94 114.64,-15.87 164.03,-22.05 50.27,-7.05 93.48,-12.35 129.64,-15.87 36.16,-3.54 60.85,-5.3 74.97,-5.3 29.1,0 53.79,6.17 74.97,16.76 20.28,11.46 30.85,34.39 30.85,68.79l0 237.23c0,31.75 -7.93,59.97 -22.92,87.31 -15.88,26.46 -52.92,39.69 -111.12,39.69l-2511.65 0c-81.14,0 -147.28,-7.93 -197.54,-22.93 -51.15,-15.87 -90.84,-37.92 -119.93,-67.91 -29.99,-29.1 -49.4,-66.15 -59.97,-111.11 -10.59,-44.1 -15,-97.01 -15,-156.98l0 -2901.45c0,-98.77 10.59,-177.26 33.51,-236.35 22.05,-59.98 53.8,-104.94 95.24,-137.58 41.46,-31.74 90.84,-52.04 148.16,-61.73 58.21,-9.7 122.58,-14.11 193.13,-14.11l2335.27 0c59.1,0 96.13,13.23 112.88,39.69 15.87,27.33 23.82,56.44 23.82,89.07l0 183.44c0,34.39 -8.82,57.31 -26.46,68.79 -18.52,11.46 -42.34,16.75 -71.44,16.75 -16.76,0 -43.22,-1.77 -78.5,-5.29 -35.28,-3.53 -76.72,-7.94 -122.57,-14.12 -46.75,-6.16 -97.01,-12.34 -149.93,-19.39 -53.79,-7.05 -106.7,-14.12 -160.5,-22.94 -124.34,-19.39 -259.28,-40.56 -405.67,-64.38l0 656.14 961.27 0c36.16,0 53.8,17.62 53.8,53.79l0 258.39c0,37.94 -17.64,57.33 -53.8,57.33l-961.27 0z"/>
   <path class="fil0" d="M9094.12 3861.96l357.17 -1361.65c6.18,-30.87 13.23,-59.08 20.28,-85.54 7.07,-25.58 15.89,-47.63 27.35,-67.04 11.46,-18.52 25.57,-33.51 44.1,-43.21 17.64,-10.58 42.33,-15.87 73.2,-15.87l261.05 0c25.57,0 46.74,5.29 61.73,15.87 15.88,9.7 23.82,27.34 23.82,51.15 0,32.64 -8.82,75.85 -26.46,129.63l-1079.45 3270.98c-25.58,78.49 -56.45,139.34 -91.73,180.78 -35.26,41.46 -89.95,61.74 -164.03,61.74l-358.93 0c-39.69,0 -72.31,-7.93 -98.76,-22.93 -25.58,-15.87 -47.63,-35.28 -65.27,-58.2 -18.52,-23.82 -33.51,-48.51 -44.1,-76.74 -11.46,-27.33 -21.16,-53.79 -29.98,-80.25l-1186.16 -3169.55c-16.75,-44.98 -25.57,-85.54 -25.57,-121.7 0,-59.97 18.52,-105.81 56.44,-135.81 37.92,-29.99 77.61,-44.97 119.05,-44.97l1464.83 0c43.22,0 80.27,4.41 110.24,14.11 29.99,9.69 55.56,22.92 75.84,41.45 21.17,17.64 37.92,39.69 52.04,64.38 14.11,24.69 24.69,52.03 33.51,81.13l389.8 1372.24z"/>
   <path class="fil0" d="M2221.5 4363.78l-606.75 1118.24c-26.46,48.51 -57.33,88.2 -93.48,119.94 -36.16,31.74 -86.43,47.63 -149.93,47.63 -58.2,0 -106.7,-15.89 -145.5,-48.51 -38.81,-32.64 -71.45,-71.45 -97.01,-116.41l-641.15 -1100.61c10.59,232.82 20.3,447.13 28.23,642.9 3.53,84.68 7.05,169.33 10.58,254 3.54,83.78 7.06,162.26 10.59,234.59 3.52,72.32 6.18,136.69 8.82,192.25 2.64,56.44 5.29,97.01 7.05,123.47 0.88,25.57 0.88,48.49 -1.76,69.67 -2.65,20.28 -8.82,37.92 -19.41,52.91 -10.57,14.11 -24.69,25.57 -44.1,33.52 -18.51,7.94 -44.08,11.46 -77.61,11.46l-283.96 0c-30.87,0 -59.97,-9.7 -86.43,-29.98 -26.46,-19.41 -39.69,-59.09 -39.69,-117.29l0 -3286.84c0,-32.62 4.41,-65.26 14.12,-97.88 8.82,-32.64 25.57,-62.62 48.51,-89.08 23.8,-26.46 53.79,-48.51 91.71,-64.38 37.93,-16.76 84.67,-24.69 140.22,-24.69l831.64 0c67.02,0 125.22,11.46 172.85,35.28 48.51,22.92 89.95,60.85 124.34,114.63l694.94 1103.25 464.75 -891.59c27.35,-52.91 54.69,-102.29 80.27,-145.51 25.57,-44.1 56.44,-82.02 91.72,-113.76 35.28,-31.74 79.37,-57.33 131.39,-74.96 52.92,-18.52 120.83,-27.34 202.85,-27.34l687.88 0c65.26,0 121.7,8.82 169.32,25.57 46.74,17.64 85.55,40.58 116.41,69.68 29.98,29.98 52.03,64.38 65.26,104.06 14.1,38.8 21.17,82.02 21.17,128.75l0 3023.15c0,52.92 -4.41,101.41 -13.23,145.51 -8.82,44.1 -26.46,82.02 -52.92,113.76 -26.46,31.76 -64.38,56.45 -113.77,74.09 -49.38,16.75 -112.88,25.57 -192.24,25.57l-1194.11 0c-70.54,0 -128.75,-7.93 -175.49,-22.93 -46.74,-15.87 -83.79,-37.92 -111.11,-67.91 -27.34,-29.1 -46.75,-66.15 -58.21,-111.11 -11.46,-44.1 -16.76,-97.01 -16.76,-156.98l0 -1276.1z"/>
   <path class="fil0" d="M5868.08 2288.67l306.09 0c100.53,0 176.37,14.98 229.29,44.1 52.04,29.1 89.09,65.26 111.13,109.34 21.16,44.1 32.62,90.84 34.39,139.34 1.76,49.39 2.64,94.35 2.64,135.81l0 1062.65 -9.55 -0.12c-414.19,0 -749.96,335.77 -749.96,749.96 0,414.19 335.77,749.96 749.96,749.96l9.55 -0.12 0 300.31c0,39.69 -3.52,83.78 -10.59,132.28 -6.16,47.62 -23.8,93.49 -51.15,135.81 -27.33,41.45 -69.67,77.61 -126.98,106.7 -56.44,29.1 -134.93,44.1 -234.59,44.1l-1105.9 0c-82.91,0 -149.92,-7.93 -201.95,-22.93 -51.15,-15.87 -91.73,-37.92 -120.82,-67.91 -29.98,-29.1 -49.39,-66.15 -59.97,-111.11 -10.59,-44.1 -15,-97.01 -15,-156.98l0 -2516.74c136.97,180.25 353.61,296.67 597.47,296.67 414.19,0 749.96,-335.77 749.96,-749.96 0,-139.18 -37.97,-269.48 -104.02,-381.19z"/>
   <circle class="fil1" cx="4922.16" cy="599.97" r="599.97"/>
   <circle class="fil1" cx="5042.15" cy="1919.9" r="449.98"/>
   <circle class="fil1" cx="5762.11" cy="1319.93" r="299.98"/>
   <circle class="fil1" cx="6632.07" cy="4349.77" r="299.98"/>
   <polygon class="fil0" points="17199.71,7514.39 17397.76,7085.26 17612.32,7085.26 17299.74,7692.34 17299.74,8037.74 17100.13,8037.74 17100.13,7692.34 16787.54,7085.26 17002.78,7085.26 "/>
   <path class="fil0" d="M16052.09 8037.74l0 -952.48 333.56 0c115.66,0 203.41,22.1 263.02,66.54 59.83,44.21 89.76,109.18 89.76,194.69 0,46.67 -12.06,87.98 -36.17,123.47 -23.89,35.51 -57.16,61.62 -100.02,78.15 48.9,12.27 87.3,36.84 115.43,73.91 28.12,37.06 42.19,82.39 42.19,135.96 0,91.55 -29.25,160.76 -87.52,207.88 -58.5,47.11 -141.77,70.99 -249.85,71.89l-370.4 0zm196.25 -413.95l0 255.88 168.12 0c46.22,0 82.4,-10.94 108.29,-32.82 25.89,-21.89 38.85,-52.25 38.85,-90.89 0,-86.85 -45.1,-130.83 -135.3,-132.17l-179.96 0zm0 -139.32l145.35 0c98.9,-1.79 148.48,-41.09 148.48,-118.33 0,-43.09 -12.51,-74.13 -37.74,-93.1 -25.01,-18.99 -64.53,-28.37 -118.78,-28.37l-137.31 0 0 239.8z"/>
   <polygon class="fil0" points="15566.48,6923.17 15662.03,6829.4 15823.69,6829.4 15823.69,6836.54 15626.09,7020.97 15506.4,7020.97 15308.8,6835.2 15308.8,6829.4 15470.46,6829.4 "/>
   <polygon class="fil0" points="15448.59,7879.67 15928.62,7879.67 15928.62,8037.74 15203.21,8037.74 15203.21,7922.31 15674.08,7244.67 15203.87,7244.67 15203.87,7085.26 15918.12,7085.26 15918.12,7198.02 "/>
   <path class="fil0" d="M15079.52 7085.26l0 627.62c0,104.27 -32.6,186.66 -97.79,247.4 -65.19,60.51 -154.28,90.87 -267.26,90.87 -111.19,0 -199.6,-29.48 -265.03,-88.43 -65.41,-58.72 -98.67,-139.76 -100.02,-242.69l0 -634.77 196.26 0 0 628.52c0,62.52 14.96,107.84 44.88,136.41 29.91,28.58 71.22,42.87 123.91,42.87 110.3,0 166.34,-58.05 168.12,-173.93l0 -633.87 196.93 0z"/>
   <polygon class="fil0" points="13845.26,7879.67 14261.89,7879.67 14261.89,8037.74 13648.99,8037.74 13648.99,7085.26 13845.26,7085.26 "/>
   <path class="fil0" d="M13319.67 7787.9c0,-37.07 -13.17,-65.64 -39.28,-85.52 -26.13,-19.65 -73.25,-40.63 -141.34,-62.74 -68.1,-21.89 -121.91,-43.77 -161.64,-64.98 -108.07,-58.5 -162.1,-137.32 -162.1,-236.45 0,-51.35 14.51,-97.34 43.53,-137.75 28.82,-40.43 70.56,-71.9 124.81,-94.67 54.27,-22.55 115.2,-33.93 182.87,-33.93 68.1,0 128.6,12.27 181.74,37.06 53.36,24.56 94.66,59.39 124.13,104.26 29.25,45.1 44,96 44,153.17l-196.04 0c0,-43.55 -13.85,-77.27 -41.31,-101.59 -27.47,-24.12 -66.09,-36.18 -115.87,-36.18 -47.79,0 -85.08,10.05 -111.86,30.38 -26.58,20.31 -39.75,47.11 -39.75,80.38 0,30.81 15.63,56.93 46.67,77.93 31.26,20.76 77.04,40.41 137.76,58.72 111.64,33.71 192.91,75.24 244.04,125.03 50.91,49.79 76.37,111.62 76.37,185.77 0,82.38 -31.04,147.12 -93.56,194.01 -62.31,46.89 -146.25,70.34 -251.64,70.34 -73.46,0 -139.99,-13.4 -200.27,-40.19 -60.06,-26.8 -106.06,-63.64 -137.75,-110.3 -31.49,-46.66 -47.34,-100.91 -47.34,-162.32l196.92 0c0,104.95 62.75,157.42 188.44,157.42 46.45,0 83.07,-9.38 109.19,-28.37 26.11,-18.97 39.28,-45.54 39.28,-79.48z"/>
   <polygon class="fil0" points="7883.91,6828.05 8089.99,6828.05 7908.69,7030.33 7755.09,7030.33 "/>
   <polygon class="fil0" points="8088.43,7623.79 7711.77,7623.79 7711.77,7879.67 8153.85,7879.67 8153.85,8037.74 7515.5,8037.74 7515.5,7085.26 8152.5,7085.26 8152.5,7244.67 7711.77,7244.67 7711.77,7471.07 8088.43,7471.07 "/>
   <polygon class="fil0" points="6991.72,7801.52 7207.41,7085.26 7425.98,7085.26 7094.43,8037.74 6889.67,8037.74 6559.24,7085.26 6777.15,7085.26 "/>
   <path class="fil0" d="M6511.23 7583.17c0,93.77 -16.74,175.94 -49.8,246.71 -33.27,70.78 -80.6,125.25 -142.22,163.67 -61.85,38.4 -132.62,57.6 -212.33,57.6 -79.05,0 -149.38,-18.98 -211.22,-56.94 -62.07,-37.95 -110.06,-92.21 -144.01,-162.76 -33.94,-70.33 -51.13,-151.38 -51.58,-243.15l0 -47.12c0,-93.77 16.75,-176.37 50.68,-247.83 33.72,-71.22 81.51,-125.92 143.12,-164.11 61.85,-38.17 132.4,-57.37 211.67,-57.37 79.49,0 149.81,19.2 211.66,57.37 61.63,38.19 109.4,92.9 143.12,164.11 33.94,71.46 50.91,153.83 50.91,247.17l0 42.65zm-198.94 -43.32c0,-100.03 -17.86,-175.94 -53.59,-227.96 -35.94,-52.04 -86.85,-77.93 -153.16,-77.93 -65.88,0 -116.55,25.67 -152.49,77.03 -35.73,51.36 -53.82,126.59 -54.26,225.74l0 46.44c0,97.34 17.85,173.03 53.81,226.62 35.73,53.81 87.07,80.6 154.28,80.6 65.86,0 116.31,-25.89 151.82,-77.7 35.28,-51.57 53.14,-127.04 53.59,-226.18l0 -46.66z"/>
   <path class="fil0" d="M4858.56 8037.74l0 -952.48 292.93 0c83.74,0 158.75,18.75 224.84,56.49 66.09,37.73 117.66,91.55 154.73,160.97 37.06,69.68 55.6,148.7 55.6,237.13l0 43.98c0,88.42 -18.31,167.24 -54.7,236.01 -36.41,68.99 -87.75,122.35 -154.07,160.3 -66.32,37.96 -141.1,57.16 -224.39,57.61l-294.94 0zm196.26 -793.07l0 635 94.88 0c76.59,0 135.31,-25.01 175.94,-75.03 40.43,-50.24 61.19,-121.9 62.07,-215.02l0 -50.23c0,-96.67 -20.08,-170.14 -60.28,-219.92 -39.96,-49.8 -98.68,-74.81 -175.94,-74.81l-96.67 0z"/>
   <polygon class="fil0" points="4676.6,8037.74 4480.56,8037.74 4480.56,7085.26 4676.6,7085.26 "/>
   <polygon class="fil0" points="3938.9,7879.67 4355.53,7879.67 4355.53,8037.74 3742.63,8037.74 3742.63,7085.26 3938.9,7085.26 "/>
   <polygon class="fil0" points="3190.48,7655.73 3088.45,7765.57 3088.45,8037.74 2892.18,8037.74 2892.18,7085.26 3088.45,7085.26 3088.45,7517.08 3174.85,7398.51 3417.54,7085.26 3658.9,7085.26 3320.64,7508.59 3668.73,8037.74 3435.18,8037.74 "/>
   <polygon class="fil0" points="2401.66,6830.73 2607.75,6830.73 2426.44,7033.02 2272.83,7033.02 "/>
   <path class="fil0" d="M2731.2 7085.26l0 627.62c0,104.27 -32.59,186.66 -97.79,247.4 -65.19,60.51 -154.28,90.87 -267.26,90.87 -111.18,0 -199.59,-29.48 -265.02,-88.43 -65.42,-58.72 -98.68,-139.76 -100.03,-242.69l0 -634.77 196.27 0 0 628.52c0,62.52 14.95,107.84 44.88,136.41 29.91,28.58 71.22,42.87 123.9,42.87 110.3,0 166.34,-58.05 168.13,-173.93l0 -633.87 196.92 0z"/>
   <path class="fil2" d="M9525.99 6629.89l1799.91 0c494.97,0 899.95,404.98 899.95,899.95l0 0c0,494.97 -404.98,899.95 -899.95,899.95l-1799.91 0c-494.97,0 -899.95,-404.98 -899.95,-899.95l0 0c0,-494.97 404.98,-899.95 899.95,-899.95zm316.66 993.91l-376.66 0 0 255.88 442.09 0 0 158.07 -638.35 0 0 -952.48 637 0 0 159.41 -440.74 0 0 226.4 376.66 0 0 152.72zm928.16 97.12c-7.38,102.48 -45.11,183.08 -113.42,242.03 -68.1,58.72 -158.08,88.2 -269.72,88.2 -122.14,0 -218.14,-41.09 -288.25,-123.47 -69.89,-82.17 -104.93,-195.14 -104.93,-338.7l0 -58.27c0,-91.55 16.08,-172.37 48.45,-242.26 32.16,-69.67 78.37,-123.24 138.21,-160.53 60.06,-37.29 129.71,-56.04 208.99,-56.04 110.06,0 198.48,29.47 265.7,88.18 67.2,58.95 106.04,141.56 116.31,248.06l-196.26 0c-4.68,-61.62 -21.87,-106.26 -51.35,-133.95 -29.25,-27.69 -74.13,-41.54 -134.4,-41.54 -65.43,0 -114.32,23.45 -146.69,70.34 -32.61,46.89 -49.13,119.67 -50.03,218.36l0 71.91c0,102.92 15.41,178.16 46.67,225.72 31.26,47.57 80.38,71.45 147.59,71.45 60.51,0 105.83,-13.83 135.74,-41.3 29.7,-27.69 46.89,-70.33 51.36,-128.16l196.04 0zm911.17 -137.75c0,93.77 -16.74,175.94 -49.8,246.71 -33.27,70.78 -80.6,125.25 -142.22,163.67 -61.85,38.4 -132.62,57.6 -212.33,57.6 -79.05,0 -149.38,-18.98 -211.22,-56.94 -62.07,-37.95 -110.06,-92.21 -144.01,-162.76 -33.94,-70.33 -51.13,-151.38 -51.58,-243.15l0 -47.12c0,-93.77 16.75,-176.37 50.68,-247.83 33.72,-71.22 81.51,-125.92 143.12,-164.11 61.85,-38.17 132.4,-57.37 211.67,-57.37 79.49,0 149.81,19.2 211.66,57.37 61.63,38.19 109.4,92.9 143.12,164.11 33.94,71.46 50.91,153.83 50.91,247.17l0 42.65zm-198.94 -43.32c0,-100.03 -17.86,-175.94 -53.59,-227.96 -35.94,-52.04 -86.85,-77.93 -153.16,-77.93 -65.88,0 -116.55,25.67 -152.49,77.03 -35.73,51.36 -53.82,126.59 -54.26,225.74l0 46.44c0,97.34 17.85,173.03 53.81,226.62 35.73,53.81 87.07,80.6 154.28,80.6 65.86,0 116.31,-25.89 151.82,-77.7 35.28,-51.57 53.14,-127.04 53.59,-226.18l0 -46.66z"/>
  </g>
 </g>
</svg>
