<svg xmlns="http://www.w3.org/2000/svg" width="750.705" height="318.623" viewBox="0 0 19861.36 8429.79" shape-rendering="geometricPrecision" text-rendering="geometricPrecision" image-rendering="optimizeQuality" fill-rule="evenodd" clip-rule="evenodd"><defs><style>.fil0,.fil1{fill:#fefefe}.fil0{fill-rule:nonzero}</style></defs><g id="Vrstva_x0020_1"><g id="_2072591033312"><path class="fil0" d="M18163.59 2288.67c31.74 0 58.2 3.52 80.25 11.46 22.93 7.93 43.21 21.16 60.85 40.57 18.53 18.53 35.28 43.22 50.27 74.96 15.88 30.87 31.75 68.8 49.39 112.88l1186.16 3167.79c7.93 24.69 14.11 45.85 17.64 64.38 3.52 19.41 5.29 37.92 5.29 57.33 0 61.72-18.52 107.58-55.56 136.68-37.05 29.1-76.74 44.1-117.29 44.1h-1465.72c-44.1 0-82.02-5.29-111.99-16.75-29.99-11.46-55.56-24.69-75.86-39.69-21.16-15.87-37.03-32.63-48.49-49.4-10.59-17.62-18.53-32.62-22.05-46.74l-28.23-89.95h-725.8l-17.64 76.72c-5.29 26.46-11.46 49.4-18.52 68.79-7.05 20.3-15.87 37.05-25.58 52.04-10.57 14.11-24.69 25.57-43.21 33.52-17.64 7.94-41.45 11.46-70.56 11.46h-266.33c-54.68 0-82.91-21.16-82.91-64.38 0-15.87 3.53-34.39 9.71-55.56 5.29-22.05 14.11-46.75 23.8-76.74l1080.33-3268.32c25.58-81.13 55.56-141.09 88.19-180.78 32.64-39.69 78.49-60.86 139.34-64.38h384.52zm-1120.91 3149.26h558.24l-287.48-1009.78-270.76 1009.78zm-3454.39-2787.69c0-59.97 4.41-112.88 15-157.85 10.57-44.1 29.98-82.02 59.97-112 29.1-29.98 69.67-52.92 120.81-68.79 52.04-15 119.05-22.93 201.95-22.93h1151.76c100.54 0 176.38 14.98 229.3 44.1 52.03 29.1 89.08 65.26 111.12 109.34 21.17 44.1 32.63 90.84 34.4 139.34 1.75 49.39 2.64 94.35 2.64 135.81v2927.91c119.06-17.64 229.29-33.53 330.71-46.76 43.22-5.28 86.43-10.57 130.51-16.75 44.1-6.17 84.67-11.46 121.7-16.76 37.05-5.29 69.67-8.82 99.65-11.46 29.11-2.65 50.28-4.41 64.38-4.41 29.11 0 52.92 6.17 70.56 16.76 18.52 11.46 27.34 34.39 27.34 68.79v237.23c0 31.75-13.23 59.97-39.69 87.31-27.34 26.46-69.67 39.69-127.86 39.69h-2211.81c-81.14 0-147.28-7.93-197.54-22.93-51.15-15.87-90.84-37.92-119.93-67.91-29.99-29.1-49.4-66.15-59.97-111.11-10.59-44.1-15-97.01-15-156.98V2650.24zm-1455.13 935.69v2095.4c167.55-24.69 320.12-45.86 460.36-65.27 58.2-7.93 117.29-16.75 176.37-23.8 59.97-7.94 114.64-15.87 164.03-22.05 50.27-7.05 93.48-12.35 129.64-15.87 36.16-3.54 60.85-5.3 74.97-5.3 29.1 0 53.79 6.17 74.97 16.76 20.28 11.46 30.85 34.39 30.85 68.79v237.23c0 31.75-7.93 59.97-22.92 87.31-15.88 26.46-52.92 39.69-111.12 39.69h-2511.65c-81.14 0-147.28-7.93-197.54-22.93-51.15-15.87-90.84-37.92-119.93-67.91-29.99-29.1-49.4-66.15-59.97-111.11-10.59-44.1-15-97.01-15-156.98V2738.44c0-98.77 10.59-177.26 33.51-236.35 22.05-59.98 53.8-104.94 95.24-137.58 41.46-31.74 90.84-52.04 148.16-61.73 58.21-9.7 122.58-14.11 193.13-14.11h2335.27c59.1 0 96.13 13.23 112.88 39.69 15.87 27.33 23.82 56.44 23.82 89.07v183.44c0 34.39-8.82 57.31-26.46 68.79-18.52 11.46-42.34 16.75-71.44 16.75-16.76 0-43.22-1.77-78.5-5.29-35.28-3.53-76.72-7.94-122.57-14.12-46.75-6.16-97.01-12.34-149.93-19.39-53.79-7.05-106.7-14.12-160.5-22.94-124.34-19.39-259.28-40.56-405.67-64.38v656.14h961.27c36.16 0 53.8 17.62 53.8 53.79v258.39c0 37.94-17.64 57.33-53.8 57.33h-961.27zm-3039.04 276.03l357.17-1361.65c6.18-30.87 13.23-59.08 20.28-85.54 7.07-25.58 15.89-47.63 27.35-67.04 11.46-18.52 25.57-33.51 44.1-43.21 17.64-10.58 42.33-15.87 73.2-15.87h261.05c25.57 0 46.74 5.29 61.73 15.87 15.88 9.7 23.82 27.34 23.82 51.15 0 32.64-8.82 75.85-26.46 129.63L8856.91 5756.28c-25.58 78.49-56.45 139.34-91.73 180.78-35.26 41.46-89.95 61.74-164.03 61.74h-358.93c-39.69 0-72.31-7.93-98.76-22.93-25.58-15.87-47.63-35.28-65.27-58.2-18.52-23.82-33.51-48.51-44.1-76.74-11.46-27.33-21.16-53.79-29.98-80.25L6817.95 2591.13c-16.75-44.98-25.57-85.54-25.57-121.7 0-59.97 18.52-105.81 56.44-135.81 37.92-29.99 77.61-44.97 119.05-44.97H8432.7c43.22 0 80.27 4.41 110.24 14.11 29.99 9.69 55.56 22.92 75.84 41.45 21.17 17.64 37.92 39.69 52.04 64.38 14.11 24.69 24.69 52.03 33.51 81.13l389.8 1372.24zM2221.5 4363.78l-606.75 1118.24c-26.46 48.51-57.33 88.2-93.48 119.94-36.16 31.74-86.43 47.63-149.93 47.63-58.2 0-106.7-15.89-145.5-48.51-38.81-32.64-71.45-71.45-97.01-116.41L487.68 4384.06c10.59 232.82 20.3 447.13 28.23 642.9 3.53 84.68 7.05 169.33 10.58 254 3.54 83.78 7.06 162.26 10.59 234.59 3.52 72.32 6.18 136.69 8.82 192.25 2.64 56.44 5.29 97.01 7.05 123.47.88 25.57.88 48.49-1.76 69.67-2.65 20.28-8.82 37.92-19.41 52.91-10.57 14.11-24.69 25.57-44.1 33.52-18.51 7.94-44.08 11.46-77.61 11.46H126.11c-30.87 0-59.97-9.7-86.43-29.98-26.46-19.41-39.69-59.09-39.69-117.29V2564.72c0-32.62 4.41-65.26 14.12-97.88 8.82-32.64 25.57-62.62 48.51-89.08 23.8-26.46 53.79-48.51 91.71-64.38 37.93-16.76 84.67-24.69 140.22-24.69h831.64c67.02 0 125.22 11.46 172.85 35.28 48.51 22.92 89.95 60.85 124.34 114.63l694.94 1103.25 464.75-891.59c27.35-52.91 54.69-102.29 80.27-145.51 25.57-44.1 56.44-82.02 91.72-113.76 35.28-31.74 79.37-57.33 131.39-74.96 52.92-18.52 120.83-27.34 202.85-27.34h687.88c65.26 0 121.7 8.82 169.32 25.57 46.74 17.64 85.55 40.58 116.41 69.68 29.98 29.98 52.03 64.38 65.26 104.06 14.1 38.8 21.17 82.02 21.17 128.75V5639.9c0 52.92-4.41 101.41-13.23 145.51-8.82 44.1-26.46 82.02-52.92 113.76-26.46 31.76-64.38 56.45-113.77 74.09-49.38 16.75-112.88 25.57-192.24 25.57H2583.07c-70.54 0-128.75-7.93-175.49-22.93-46.74-15.87-83.79-37.92-111.11-67.91-27.34-29.1-46.75-66.15-58.21-111.11-11.46-44.1-16.76-97.01-16.76-156.98V4363.8zm3646.58-2075.11h306.09c100.53 0 176.37 14.98 229.29 44.1 52.04 29.1 89.09 65.26 111.13 109.34 21.16 44.1 32.62 90.84 34.39 139.34 1.76 49.39 2.64 94.35 2.64 135.81v1062.65l-9.55-.12c-414.19 0-749.96 335.77-749.96 749.96 0 414.19 335.77 749.96 749.96 749.96l9.55-.12v300.31c0 39.69-3.52 83.78-10.59 132.28-6.16 47.62-23.8 93.49-51.15 135.81-27.33 41.45-69.67 77.61-126.98 106.7-56.44 29.1-134.93 44.1-234.59 44.1h-1105.9c-82.91 0-149.92-7.93-201.95-22.93-51.15-15.87-91.73-37.92-120.82-67.91-29.98-29.1-49.39-66.15-59.97-111.11-10.59-44.1-15-97.01-15-156.98V3123.12c136.97 180.25 353.61 296.67 597.47 296.67 414.19 0 749.96-335.77 749.96-749.96 0-139.18-37.97-269.48-104.02-381.19z"/><circle class="fil1" cx="4922.16" cy="599.97" r="599.97"/><circle class="fil1" cx="5042.15" cy="1919.9" r="449.98"/><circle class="fil1" cx="5762.11" cy="1319.93" r="299.98"/><circle class="fil1" cx="6632.07" cy="4349.77" r="299.98"/><path class="fil0" d="M17199.71 7514.39l198.05-429.13h214.56l-312.58 607.08v345.4h-199.61v-345.4l-312.59-607.08h215.24zm-1147.62 523.35v-952.48h333.56c115.66 0 203.41 22.1 263.02 66.54 59.83 44.21 89.76 109.18 89.76 194.69 0 46.67-12.06 87.98-36.17 123.47-23.89 35.51-57.16 61.62-100.02 78.15 48.9 12.27 87.3 36.84 115.43 73.91 28.12 37.06 42.19 82.39 42.19 135.96 0 91.55-29.25 160.76-87.52 207.88-58.5 47.11-141.77 70.99-249.85 71.89h-370.4zm196.25-413.95v255.88h168.12c46.22 0 82.4-10.94 108.29-32.82 25.89-21.89 38.85-52.25 38.85-90.89 0-86.85-45.1-130.83-135.3-132.17h-179.96zm0-139.32h145.35c98.9-1.79 148.48-41.09 148.48-118.33 0-43.09-12.51-74.13-37.74-93.1-25.01-18.99-64.53-28.37-118.78-28.37h-137.31v239.8zm-681.86-561.3l95.55-93.77h161.66v7.14l-197.6 184.43h-119.69l-197.6-185.77v-5.8h161.66zm-117.89 956.5h480.03v158.07h-725.41v-115.43l470.87-677.64h-470.21v-159.41h714.25v112.76zm-369.07-794.41v627.62c0 104.27-32.6 186.66-97.79 247.4-65.19 60.51-154.28 90.87-267.26 90.87-111.19 0-199.6-29.48-265.03-88.43-65.41-58.72-98.67-139.76-100.02-242.69v-634.77h196.26v628.52c0 62.52 14.96 107.84 44.88 136.41 29.91 28.58 71.22 42.87 123.91 42.87 110.3 0 166.34-58.05 168.12-173.93v-633.87h196.93zm-1234.26 794.41h416.63v158.07h-612.9v-952.48h196.27zm-525.59-91.77c0-37.07-13.17-65.64-39.28-85.52-26.13-19.65-73.25-40.63-141.34-62.74-68.1-21.89-121.91-43.77-161.64-64.98-108.07-58.5-162.1-137.32-162.1-236.45 0-51.35 14.51-97.34 43.53-137.75 28.82-40.43 70.56-71.9 124.81-94.67 54.27-22.55 115.2-33.93 182.87-33.93 68.1 0 128.6 12.27 181.74 37.06 53.36 24.56 94.66 59.39 124.13 104.26 29.25 45.1 44 96 44 153.17h-196.04c0-43.55-13.85-77.27-41.31-101.59-27.47-24.12-66.09-36.18-115.87-36.18-47.79 0-85.08 10.05-111.86 30.38-26.58 20.31-39.75 47.11-39.75 80.38 0 30.81 15.63 56.93 46.67 77.93 31.26 20.76 77.04 40.41 137.76 58.72 111.64 33.71 192.91 75.24 244.04 125.03 50.91 49.79 76.37 111.62 76.37 185.77 0 82.38-31.04 147.12-93.56 194.01-62.31 46.89-146.25 70.34-251.64 70.34-73.46 0-139.99-13.4-200.27-40.19-60.06-26.8-106.06-63.64-137.75-110.3-31.49-46.66-47.34-100.91-47.34-162.32h196.92c0 104.95 62.75 157.42 188.44 157.42 46.45 0 83.07-9.38 109.19-28.37 26.11-18.97 39.28-45.54 39.28-79.48zm-5435.76-959.85h206.08l-181.3 202.28h-153.6zm204.52 795.74h-376.66v255.88h442.08v158.07H7515.5v-952.48h637v159.41h-440.73v226.4h376.66zm-1096.71 177.73l215.69-716.26h218.57l-331.55 952.48h-204.76l-330.43-952.48h217.91zm-480.49-218.35c0 93.77-16.74 175.94-49.8 246.71-33.27 70.78-80.6 125.25-142.22 163.67-61.85 38.4-132.62 57.6-212.33 57.6-79.05 0-149.38-18.98-211.22-56.94-62.07-37.95-110.06-92.21-144.01-162.76-33.94-70.33-51.13-151.38-51.58-243.15v-47.12c0-93.77 16.75-176.37 50.68-247.83 33.72-71.22 81.51-125.92 143.12-164.11 61.85-38.17 132.4-57.37 211.67-57.37 79.49 0 149.81 19.2 211.66 57.37 61.63 38.19 109.4 92.9 143.12 164.11 33.94 71.46 50.91 153.83 50.91 247.17v42.65zm-198.94-43.32c0-100.03-17.86-175.94-53.59-227.96-35.94-52.04-86.85-77.93-153.16-77.93-65.88 0-116.55 25.67-152.49 77.03-35.73 51.36-53.82 126.59-54.26 225.74v46.44c0 97.34 17.85 173.03 53.81 226.62 35.73 53.81 87.07 80.6 154.28 80.6 65.86 0 116.31-25.89 151.82-77.7 35.28-51.57 53.14-127.04 53.59-226.18v-46.66zm-1453.73 497.89v-952.48h292.93c83.74 0 158.75 18.75 224.84 56.49 66.09 37.73 117.66 91.55 154.73 160.97 37.06 69.68 55.6 148.7 55.6 237.13v43.98c0 88.42-18.31 167.24-54.7 236.01-36.41 68.99-87.75 122.35-154.07 160.3-66.32 37.96-141.1 57.16-224.39 57.61h-294.94zm196.26-793.07v635h94.88c76.59 0 135.31-25.01 175.94-75.03 40.43-50.24 61.19-121.9 62.07-215.02v-50.23c0-96.67-20.08-170.14-60.28-219.92-39.96-49.8-98.68-74.81-175.94-74.81h-96.67zm-378.22 793.07h-196.04v-952.48h196.04zm-737.7-158.07h416.63v158.07h-612.9v-952.48h196.27zm-748.42-223.94l-102.03 109.84v272.17h-196.27v-952.48h196.27v431.82l86.4-118.57 242.69-313.25h241.36l-338.26 423.33 348.09 529.15h-233.55zm-788.82-825h206.09l-181.31 202.29h-153.61zm329.54 254.53v627.62c0 104.27-32.59 186.66-97.79 247.4-65.19 60.51-154.28 90.87-267.26 90.87-111.18 0-199.59-29.48-265.02-88.43-65.42-58.72-98.68-139.76-100.03-242.69v-634.77h196.27v628.52c0 62.52 14.95 107.84 44.88 136.41 29.91 28.58 71.22 42.87 123.9 42.87 110.3 0 166.34-58.05 168.13-173.93v-633.87h196.92z"/><path d="M9525.99 6629.89h1799.91c494.97 0 899.95 404.98 899.95 899.95s-404.98 899.95-899.95 899.95H9525.99c-494.97 0-899.95-404.98-899.95-899.95s404.98-899.95 899.95-899.95zm316.66 993.91h-376.66v255.88h442.09v158.07h-638.35v-952.48h637v159.41h-440.74v226.4h376.66v152.72zm928.16 97.12c-7.38 102.48-45.11 183.08-113.42 242.03-68.1 58.72-158.08 88.2-269.72 88.2-122.14 0-218.14-41.09-288.25-123.47-69.89-82.17-104.93-195.14-104.93-338.7v-58.27c0-91.55 16.08-172.37 48.45-242.26 32.16-69.67 78.37-123.24 138.21-160.53 60.06-37.29 129.71-56.04 208.99-56.04 110.06 0 198.48 29.47 265.7 88.18 67.2 58.95 106.04 141.56 116.31 248.06h-196.26c-4.68-61.62-21.87-106.26-51.35-133.95-29.25-27.69-74.13-41.54-134.4-41.54-65.43 0-114.32 23.45-146.69 70.34-32.61 46.89-49.13 119.67-50.03 218.36v71.91c0 102.92 15.41 178.16 46.67 225.72 31.26 47.57 80.38 71.45 147.59 71.45 60.51 0 105.83-13.83 135.74-41.3 29.7-27.69 46.89-70.33 51.36-128.16h196.04zm911.17-137.75c0 93.77-16.74 175.94-49.8 246.71-33.27 70.78-80.6 125.25-142.22 163.67-61.85 38.4-132.62 57.6-212.33 57.6-79.05 0-149.38-18.98-211.22-56.94-62.07-37.95-110.06-92.21-144.01-162.76-33.94-70.33-51.13-151.38-51.58-243.15v-47.12c0-93.77 16.75-176.37 50.68-247.83 33.72-71.22 81.51-125.92 143.12-164.11 61.85-38.17 132.4-57.37 211.67-57.37 79.49 0 149.81 19.2 211.66 57.37 61.63 38.19 109.4 92.9 143.12 164.11 33.94 71.46 50.91 153.83 50.91 247.17v42.65zm-198.94-43.32c0-100.03-17.86-175.94-53.59-227.96-35.94-52.04-86.85-77.93-153.16-77.93-65.88 0-116.55 25.67-152.49 77.03-35.73 51.36-53.82 126.59-54.26 225.74v46.44c0 97.34 17.85 173.03 53.81 226.62 35.73 53.81 87.07 80.6 154.28 80.6 65.86 0 116.31-25.89 151.82-77.7 35.28-51.57 53.14-127.04 53.59-226.18v-46.66z" fill="#319e76"/></g></g></svg>