<svg width="95" height="152" fill="none" xmlns="http://www.w3.org/2000/svg"><path fill-rule="evenodd" clip-rule="evenodd" d="M7.559 0h79.37c4.157 0 7.558 3.401 7.558 7.559V143.62c0 4.158-3.4 7.559-7.558 7.559H7.559C3.4 151.179 0 147.778 0 143.62V7.559C0 3.4 3.401 0 7.559 0zm11.339 17.009a1.89 1.89 0 11-.002 3.78 1.89 1.89 0 01.002-3.78zm18.898 0a1.89 1.89 0 11-.002 3.78 1.89 1.89 0 01.002-3.78zm18.898 0a1.89 1.89 0 11-.002 3.78 1.89 1.89 0 01.002-3.78zm18.897 0a1.89 1.89 0 11-.001 3.78 1.89 1.89 0 01.001-3.78zM18.9 35.907a1.89 1.89 0 11-.002 3.78 1.89 1.89 0 01.002-3.78zm18.898 0a1.89 1.89 0 11-.002 3.78 1.89 1.89 0 01.002-3.78zm18.898 0a1.89 1.89 0 11-.002 3.78 1.89 1.89 0 01.002-3.78zm18.897 0a1.89 1.89 0 11-.001 3.78 1.89 1.89 0 01.001-3.78zM18.902 54.803a1.89 1.89 0 11-.002 3.78 1.89 1.89 0 01.002-3.78zm18.898 0a1.89 1.89 0 11-.002 3.78 1.89 1.89 0 01.002-3.78zm18.898 0a1.89 1.89 0 11-.002 3.78 1.89 1.89 0 01.002-3.78zm18.897 0a1.89 1.89 0 11-.001 3.78 1.89 1.89 0 01.001-3.78zM18.904 73.702a1.89 1.89 0 11-.002 3.78 1.89 1.89 0 01.002-3.78zm18.897 0a1.89 1.89 0 11-.001 3.78 1.89 1.89 0 01.002-3.78zm18.898 0a1.89 1.89 0 11-.001 3.78 1.89 1.89 0 01.001-3.78zm18.898 0a1.89 1.89 0 11-.001 3.78 1.89 1.89 0 01.001-3.78zM18.906 92.6a1.89 1.89 0 11-.002 3.78 1.89 1.89 0 01.002-3.78zm18.898 0a1.89 1.89 0 11-.002 3.78 1.89 1.89 0 01.002-3.78zm18.897 0a1.89 1.89 0 11-.001 3.78 1.89 1.89 0 01.001-3.78zm18.898 0a1.89 1.89 0 11-.002 3.78 1.89 1.89 0 01.002-3.78zm-56.692 18.898a1.89 1.89 0 11-.001 3.777 1.89 1.89 0 01.001-3.777zm18.898 0a1.89 1.89 0 11-.001 3.777 1.89 1.89 0 01.001-3.777zm18.898 0a1.89 1.89 0 11-.001 3.777 1.89 1.89 0 01.001-3.777zm18.898 0a1.89 1.89 0 110 3.777 1.89 1.89 0 010-3.777zM18.91 130.396a1.89 1.89 0 110 3.78 1.89 1.89 0 010-3.78zm18.898 0a1.89 1.89 0 110 3.78 1.89 1.89 0 010-3.78zm18.898 0a1.89 1.89 0 110 3.78 1.89 1.89 0 010-3.78zm18.898 0a1.89 1.89 0 110 3.78 1.89 1.89 0 010-3.78z" fill="#fff"/></svg>