<svg width="95" height="152" viewBox="0 0 95 152" fill="none" xmlns="http://www.w3.org/2000/svg">
<path fill-rule="evenodd" clip-rule="evenodd" d="M7.55877 0H86.9287C91.0861 0 94.4875 3.40135 94.4875 7.55877V143.62C94.4875 147.778 91.0861 151.179 86.9287 151.179H7.55877C3.40135 151.179 0 147.778 0 143.62V7.55877C0 3.40135 3.40135 0 7.55877 0ZM18.8979 17.0087C19.9406 17.0087 20.7871 17.8552 20.7871 18.8979C20.7871 19.9406 19.9406 20.7871 18.8979 20.7871C17.8552 20.7871 17.0087 19.9406 17.0087 18.8979C17.0087 17.8552 17.8552 17.0087 18.8979 17.0087ZM37.7958 17.0087C38.8385 17.0087 39.685 17.8552 39.685 18.8979C39.685 19.9406 38.8385 20.7871 37.7958 20.7871C36.753 20.7871 35.9065 19.9406 35.9065 18.8979C35.9065 17.8552 36.753 17.0087 37.7958 17.0087ZM56.6936 17.0087C57.7364 17.0087 58.5828 17.8552 58.5828 18.8979C58.5828 19.9406 57.7364 20.7871 56.6936 20.7871C55.6509 20.7871 54.8044 19.9406 54.8044 18.8979C54.8044 17.8552 55.6509 17.0087 56.6936 17.0087ZM75.5915 17.0087C76.6342 17.0087 77.4807 17.8552 77.4807 18.8979C77.4807 19.9406 76.6342 20.7871 75.5915 20.7871C74.5488 20.7871 73.7023 19.9406 73.7023 18.8979C73.7023 17.8552 74.5488 17.0087 75.5915 17.0087ZM18.8998 35.9065C19.9425 35.9065 20.789 36.753 20.789 37.7958C20.789 38.8385 19.9425 39.685 18.8998 39.685C17.8571 39.685 17.0106 38.8385 17.0106 37.7958C17.0106 36.753 17.8571 35.9065 18.8998 35.9065ZM37.7977 35.9065C38.8404 35.9065 39.6869 36.753 39.6869 37.7958C39.6869 38.8385 38.8404 39.685 37.7977 39.685C36.755 39.685 35.9085 38.8385 35.9085 37.7958C35.9085 36.753 36.755 35.9065 37.7977 35.9065ZM56.6956 35.9065C57.7383 35.9065 58.5848 36.753 58.5848 37.7958C58.5848 38.8385 57.7383 39.685 56.6956 39.685C55.6528 39.685 54.8063 38.8385 54.8063 37.7958C54.8063 36.753 55.6528 35.9065 56.6956 35.9065ZM75.5934 35.9065C76.6362 35.9065 77.4826 36.753 77.4826 37.7958C77.4826 38.8385 76.6362 39.685 75.5934 39.685C74.5507 39.685 73.7042 38.8385 73.7042 37.7958C73.7042 36.753 74.5507 35.9065 75.5934 35.9065ZM18.9017 54.8044C19.9444 54.8044 20.7909 55.6509 20.7909 56.6936C20.7909 57.7364 19.9444 58.5829 18.9017 58.5829C17.859 58.5829 17.0125 57.7364 17.0125 56.6936C17.0125 55.6509 17.859 54.8044 18.9017 54.8044ZM37.7996 54.8044C38.8423 54.8044 39.6888 55.6509 39.6888 56.6936C39.6888 57.7364 38.8423 58.5829 37.7996 58.5829C36.7569 58.5829 35.9104 57.7364 35.9104 56.6936C35.9104 55.6509 36.7569 54.8044 37.7996 54.8044ZM56.6975 54.8044C57.7402 54.8044 58.5867 55.6509 58.5867 56.6936C58.5867 57.7364 57.7402 58.5829 56.6975 58.5829C55.6548 58.5829 54.8083 57.7364 54.8083 56.6936C54.8083 55.6509 55.6548 54.8044 56.6975 54.8044ZM75.5954 54.8044C76.6381 54.8044 77.4846 55.6509 77.4846 56.6936C77.4846 57.7364 76.6381 58.5829 75.5954 58.5829C74.5526 58.5829 73.7061 57.7364 73.7061 56.6936C73.7061 55.6509 74.5526 54.8044 75.5954 54.8044ZM18.9037 73.7023C19.9464 73.7023 20.7929 74.5488 20.7929 75.5915C20.7929 76.6342 19.9464 77.4807 18.9037 77.4807C17.8609 77.4807 17.0144 76.6342 17.0144 75.5915C17.0144 74.5488 17.8609 73.7023 18.9037 73.7023ZM37.8015 73.7023C38.8442 73.7023 39.6907 74.5488 39.6907 75.5915C39.6907 76.6342 38.8442 77.4807 37.8015 77.4807C36.7588 77.4807 35.9123 76.6342 35.9123 75.5915C35.9123 74.5488 36.7588 73.7023 37.8015 73.7023ZM56.6994 73.7023C57.7421 73.7023 58.5886 74.5488 58.5886 75.5915C58.5886 76.6342 57.7421 77.4807 56.6994 77.4807C55.6567 77.4807 54.8102 76.6342 54.8102 75.5915C54.8102 74.5488 55.6567 73.7023 56.6994 73.7023ZM75.5973 73.7023C76.64 73.7023 77.4865 74.5488 77.4865 75.5915C77.4865 76.6342 76.64 77.4807 75.5973 77.4807C74.5546 77.4807 73.7081 76.6342 73.7081 75.5915C73.7081 74.5488 74.5546 73.7023 75.5973 73.7023ZM18.9056 92.6002C19.9483 92.6002 20.7948 93.4467 20.7948 94.4894C20.7948 95.5321 19.9483 96.3786 18.9056 96.3786C17.8629 96.3786 17.0164 95.5321 17.0164 94.4894C17.0164 93.4467 17.8629 92.6002 18.9056 92.6002ZM37.8035 92.6002C38.8462 92.6002 39.6927 93.4467 39.6927 94.4894C39.6927 95.5321 38.8462 96.3786 37.8035 96.3786C36.7607 96.3786 35.9142 95.5321 35.9142 94.4894C35.9142 93.4467 36.7607 92.6002 37.8035 92.6002ZM56.7013 92.6002C57.7441 92.6002 58.5905 93.4467 58.5905 94.4894C58.5905 95.5321 57.7441 96.3786 56.7013 96.3786C55.6586 96.3786 54.8121 95.5321 54.8121 94.4894C54.8121 93.4467 55.6586 92.6002 56.7013 92.6002ZM75.5992 92.6002C76.6419 92.6002 77.4884 93.4467 77.4884 94.4894C77.4884 95.5321 76.6419 96.3786 75.5992 96.3786C74.5565 96.3786 73.71 95.5321 73.71 94.4894C73.71 93.4467 74.5565 92.6002 75.5992 92.6002ZM18.9075 111.498C19.9502 111.498 20.7967 112.345 20.7967 113.387C20.7967 114.43 19.9502 115.276 18.9075 115.276C17.8648 115.276 17.0183 114.43 17.0183 113.387C17.0183 112.345 17.8648 111.498 18.9075 111.498ZM37.8054 111.498C38.8481 111.498 39.6946 112.345 39.6946 113.387C39.6946 114.43 38.8481 115.276 37.8054 115.276C36.7627 115.276 35.9162 114.43 35.9162 113.387C35.9162 112.345 36.7627 111.498 37.8054 111.498ZM56.7033 111.498C57.746 111.498 58.5925 112.345 58.5925 113.387C58.5925 114.43 57.746 115.276 56.7033 115.276C55.6605 115.276 54.814 114.43 54.814 113.387C54.814 112.345 55.6605 111.498 56.7033 111.498ZM75.6011 111.498C76.6439 111.498 77.4903 112.345 77.4903 113.387C77.4903 114.43 76.6439 115.276 75.6011 115.276C74.5584 115.276 73.7119 114.43 73.7119 113.387C73.7119 112.345 74.5584 111.498 75.6011 111.498ZM18.9094 130.396C19.9521 130.396 20.7986 131.242 20.7986 132.285C20.7986 133.328 19.9521 134.174 18.9094 134.174C17.8667 134.174 17.0202 133.328 17.0202 132.285C17.0202 131.242 17.8667 130.396 18.9094 130.396ZM37.8073 130.396C38.85 130.396 39.6965 131.242 39.6965 132.285C39.6965 133.328 38.85 134.174 37.8073 134.174C36.7646 134.174 35.9181 133.328 35.9181 132.285C35.9181 131.242 36.7646 130.396 37.8073 130.396ZM56.7052 130.396C57.7479 130.396 58.5944 131.242 58.5944 132.285C58.5944 133.328 57.7479 134.174 56.7052 134.174C55.6625 134.174 54.816 133.328 54.816 132.285C54.816 131.242 55.6625 130.396 56.7052 130.396ZM75.6031 130.396C76.6458 130.396 77.4923 131.242 77.4923 132.285C77.4923 133.328 76.6458 134.174 75.6031 134.174C74.5603 134.174 73.7138 133.328 73.7138 132.285C73.7138 131.242 74.5603 130.396 75.6031 130.396Z" fill="white"/>
</svg>
