<svg width="189" height="152" viewBox="0 0 189 152" fill="none" xmlns="http://www.w3.org/2000/svg">
<path fill-rule="evenodd" clip-rule="evenodd" d="M7.55874 0H181.418C185.575 0 188.976 3.40124 188.976 7.55874V143.622C188.976 147.779 185.575 151.181 181.418 151.181H7.55874C3.40124 151.181 0 147.779 0 143.622V7.55874C0 3.40124 3.40124 0 7.55874 0ZM18.8969 17.0081C19.9396 17.0081 20.7875 17.8541 20.7875 18.8988C20.7875 19.9416 19.9416 20.7895 18.8969 20.7895C17.8541 20.7895 17.0062 19.9435 17.0062 18.8988C17.0062 17.856 17.8521 17.0081 18.8969 17.0081ZM37.7937 17.0081C38.8365 17.0081 39.6844 17.8541 39.6844 18.8988C39.6844 19.9416 38.8385 20.7895 37.7937 20.7895C36.7509 20.7895 35.9031 19.9435 35.9031 18.8988C35.9031 17.856 36.749 17.0081 37.7937 17.0081ZM56.6906 17.0081C57.7334 17.0081 58.5812 17.8541 58.5812 18.8988C58.5812 19.9416 57.7353 20.7895 56.6906 20.7895C55.6478 20.7895 54.7999 19.9435 54.7999 18.8988C54.7999 17.856 55.6458 17.0081 56.6906 17.0081ZM75.5874 17.0081C76.6302 17.0081 77.4781 17.8541 77.4781 18.8988C77.4781 19.9416 76.6322 20.7895 75.5874 20.7895C74.5446 20.7895 73.6968 19.9435 73.6968 18.8988C73.6968 17.856 74.5427 17.0081 75.5874 17.0081ZM94.4843 17.0081C95.5271 17.0081 96.375 17.8541 96.375 18.8988C96.375 19.9416 95.529 20.7895 94.4843 20.7895C93.4415 20.7895 92.5936 19.9435 92.5936 18.8988C92.5936 17.856 93.4396 17.0081 94.4843 17.0081ZM113.381 17.0081C114.424 17.0081 115.272 17.8541 115.272 18.8988C115.272 19.9416 114.426 20.7895 113.381 20.7895C112.338 20.7895 111.49 19.9435 111.49 18.8988C111.49 17.856 112.336 17.0081 113.381 17.0081ZM132.278 17.0081C133.321 17.0081 134.169 17.8541 134.169 18.8988C134.169 19.9416 133.323 20.7895 132.278 20.7895C131.235 20.7895 130.387 19.9435 130.387 18.8988C130.387 17.856 131.233 17.0081 132.278 17.0081ZM151.175 17.0081C152.218 17.0081 153.066 17.8541 153.066 18.8988C153.066 19.9416 152.22 20.7895 151.175 20.7895C150.132 20.7895 149.284 19.9435 149.284 18.8988C149.284 17.856 150.13 17.0081 151.175 17.0081ZM170.072 17.0081C171.115 17.0081 171.962 17.8541 171.962 18.8988C171.962 19.9416 171.116 20.7895 170.072 20.7895C169.029 20.7895 168.181 19.9435 168.181 18.8988C168.181 17.856 169.027 17.0081 170.072 17.0081ZM18.891 35.905C19.9338 35.905 20.7817 36.7509 20.7817 37.7957C20.7817 38.8385 19.9357 39.6863 18.891 39.6863C17.8482 39.6863 17.0004 38.8404 17.0004 37.7957C17.0004 36.7529 17.8463 35.905 18.891 35.905ZM37.7879 35.905C38.8307 35.905 39.6785 36.7509 39.6785 37.7957C39.6785 38.8385 38.8326 39.6863 37.7879 39.6863C36.7451 39.6863 35.8972 38.8404 35.8972 37.7957C35.8972 36.7529 36.7431 35.905 37.7879 35.905ZM56.6847 35.905C57.7275 35.905 58.5754 36.7509 58.5754 37.7957C58.5754 38.8385 57.7295 39.6863 56.6847 39.6863C55.6419 39.6863 54.7941 38.8404 54.7941 37.7957C54.7941 36.7529 55.64 35.905 56.6847 35.905ZM75.5816 35.905C76.6244 35.905 77.4722 36.7509 77.4722 37.7957C77.4722 38.8385 76.6263 39.6863 75.5816 39.6863C74.5388 39.6863 73.6909 38.8404 73.6909 37.7957C73.6909 36.7529 74.5368 35.905 75.5816 35.905ZM94.4784 35.905C95.5212 35.905 96.3691 36.7509 96.3691 37.7957C96.3691 38.8385 95.5232 39.6863 94.4784 39.6863C93.4357 39.6863 92.5878 38.8404 92.5878 37.7957C92.5878 36.7529 93.4337 35.905 94.4784 35.905ZM113.375 35.905C114.418 35.905 115.266 36.7509 115.266 37.7957C115.266 38.8385 114.42 39.6863 113.375 39.6863C112.333 39.6863 111.485 38.8404 111.485 37.7957C111.485 36.7529 112.331 35.905 113.375 35.905ZM132.272 35.905C133.315 35.905 134.163 36.7509 134.163 37.7957C134.163 38.8385 133.317 39.6863 132.272 39.6863C131.229 39.6863 130.382 38.8404 130.382 37.7957C130.382 36.7529 131.227 35.905 132.272 35.905ZM151.169 35.905C152.212 35.905 153.06 36.7509 153.06 37.7957C153.06 38.8385 152.214 39.6863 151.169 39.6863C150.126 39.6863 149.278 38.8404 149.278 37.7957C149.278 36.7529 150.124 35.905 151.169 35.905ZM170.066 35.905C171.109 35.905 171.957 36.7509 171.957 37.7957C171.957 38.8385 171.111 39.6863 170.066 39.6863C169.023 39.6863 168.175 38.8404 168.175 37.7957C168.175 36.7529 169.021 35.905 170.066 35.905ZM18.8852 54.8019C19.9279 54.8019 20.7758 55.6478 20.7758 56.6925C20.7758 57.7353 19.9299 58.5832 18.8852 58.5832C17.8424 58.5832 16.9945 57.7373 16.9945 56.6925C16.9945 55.6497 17.8404 54.8019 18.8852 54.8019ZM37.782 54.8019C38.8248 54.8019 39.6727 55.6478 39.6727 56.6925C39.6727 57.7353 38.8268 58.5832 37.782 58.5832C36.7392 58.5832 35.8914 57.7373 35.8914 56.6925C35.8914 55.6497 36.7373 54.8019 37.782 54.8019ZM56.6789 54.8019C57.7217 54.8019 58.5695 55.6478 58.5695 56.6925C58.5695 57.7353 57.7236 58.5832 56.6789 58.5832C55.6361 58.5832 54.7882 57.7373 54.7882 56.6925C54.7882 55.6497 55.6341 54.8019 56.6789 54.8019ZM75.5757 54.8019C76.6185 54.8019 77.4664 55.6478 77.4664 56.6925C77.4664 57.7353 76.6205 58.5832 75.5757 58.5832C74.533 58.5832 73.6851 57.7373 73.6851 56.6925C73.6851 55.6497 74.531 54.8019 75.5757 54.8019ZM94.4726 54.8019C95.5154 54.8019 96.3633 55.6478 96.3633 56.6925C96.3633 57.7353 95.5173 58.5832 94.4726 58.5832C93.4298 58.5832 92.5819 57.7373 92.5819 56.6925C92.5819 55.6497 93.4279 54.8019 94.4726 54.8019ZM113.369 54.8019C114.412 54.8019 115.26 55.6478 115.26 56.6925C115.26 57.7353 114.414 58.5832 113.369 58.5832C112.327 58.5832 111.479 57.7373 111.479 56.6925C111.479 55.6497 112.325 54.8019 113.369 54.8019ZM132.266 54.8019C133.309 54.8019 134.157 55.6478 134.157 56.6925C134.157 57.7353 133.311 58.5832 132.266 58.5832C131.224 58.5832 130.376 57.7373 130.376 56.6925C130.376 55.6497 131.222 54.8019 132.266 54.8019ZM151.163 54.8019C152.206 54.8019 153.054 55.6478 153.054 56.6925C153.054 57.7353 152.208 58.5832 151.163 58.5832C150.12 58.5832 149.273 57.7373 149.273 56.6925C149.273 55.6497 150.118 54.8019 151.163 54.8019ZM170.06 54.8019C171.103 54.8019 171.951 55.6478 171.951 56.6925C171.951 57.7353 171.105 58.5832 170.06 58.5832C169.017 58.5832 168.169 57.7373 168.169 56.6925C168.169 55.6497 169.015 54.8019 170.06 54.8019ZM18.8793 73.6987C19.9221 73.6987 20.77 74.5447 20.77 75.5894C20.77 76.6322 19.9241 77.48 18.8793 77.48C17.8365 77.48 16.9887 76.6341 16.9887 75.5894C16.9887 74.5466 17.8346 73.6987 18.8793 73.6987ZM37.7762 73.6987C38.819 73.6987 39.6668 74.5447 39.6668 75.5894C39.6668 76.6322 38.8209 77.48 37.7762 77.48C36.7334 77.48 35.8855 76.6341 35.8855 75.5894C35.8855 74.5466 36.7314 73.6987 37.7762 73.6987ZM56.673 73.6987C57.7158 73.6987 58.5637 74.5447 58.5637 75.5894C58.5637 76.6322 57.7178 77.48 56.673 77.48C55.6302 77.48 54.7824 76.6341 54.7824 75.5894C54.7824 74.5466 55.6283 73.6987 56.673 73.6987ZM75.5699 73.6987C76.6127 73.6987 77.4606 74.5447 77.4606 75.5894C77.4606 76.6322 76.6146 77.48 75.5699 77.48C74.5271 77.48 73.6792 76.6341 73.6792 75.5894C73.6792 74.5466 74.5252 73.6987 75.5699 73.6987ZM94.4668 73.6987C95.5095 73.6987 96.3574 74.5447 96.3574 75.5894C96.3574 76.6322 95.5115 77.48 94.4668 77.48C93.424 77.48 92.5761 76.6341 92.5761 75.5894C92.5761 74.5466 93.422 73.6987 94.4668 73.6987ZM113.364 73.6987C114.406 73.6987 115.254 74.5447 115.254 75.5894C115.254 76.6322 114.408 77.48 113.364 77.48C112.321 77.48 111.473 76.6341 111.473 75.5894C111.473 74.5466 112.319 73.6987 113.364 73.6987ZM132.26 73.6987C133.303 73.6987 134.151 74.5447 134.151 75.5894C134.151 76.6322 133.305 77.48 132.26 77.48C131.218 77.48 130.37 76.6341 130.37 75.5894C130.37 74.5466 131.216 73.6987 132.26 73.6987ZM151.157 73.6987C152.2 73.6987 153.048 74.5447 153.048 75.5894C153.048 76.6322 152.202 77.48 151.157 77.48C150.115 77.48 149.267 76.6341 149.267 75.5894C149.267 74.5466 150.113 73.6987 151.157 73.6987ZM170.054 73.6987C171.097 73.6987 171.945 74.5447 171.945 75.5894C171.945 76.6322 171.099 77.48 170.054 77.48C169.011 77.48 168.164 76.6341 168.164 75.5894C168.164 74.5466 169.009 73.6987 170.054 73.6987ZM18.8735 92.5956C19.9163 92.5956 20.7641 93.4415 20.7641 94.4863C20.7641 95.529 19.9182 96.3769 18.8735 96.3769C17.8307 96.3769 16.9828 95.531 16.9828 94.4863C16.9828 93.4435 17.8287 92.5956 18.8735 92.5956ZM37.7703 92.5956C38.8131 92.5956 39.661 93.4415 39.661 94.4863C39.661 95.529 38.8151 96.3769 37.7703 96.3769C36.7275 96.3769 35.8797 95.531 35.8797 94.4863C35.8797 93.4435 36.7256 92.5956 37.7703 92.5956ZM56.6672 92.5956C57.71 92.5956 58.5578 93.4415 58.5578 94.4863C58.5578 95.529 57.7119 96.3769 56.6672 96.3769C55.6244 96.3769 54.7765 95.531 54.7765 94.4863C54.7765 93.4435 55.6225 92.5956 56.6672 92.5956ZM75.564 92.5956C76.6068 92.5956 77.4547 93.4415 77.4547 94.4863C77.4547 95.529 76.6088 96.3769 75.564 96.3769C74.5213 96.3769 73.6734 95.531 73.6734 94.4863C73.6734 93.4435 74.5193 92.5956 75.564 92.5956ZM94.4609 92.5956C95.5037 92.5956 96.3516 93.4415 96.3516 94.4863C96.3516 95.529 95.5056 96.3769 94.4609 96.3769C93.4181 96.3769 92.5702 95.531 92.5702 94.4863C92.5702 93.4435 93.4162 92.5956 94.4609 92.5956ZM113.358 92.5956C114.401 92.5956 115.248 93.4415 115.248 94.4863C115.248 95.529 114.403 96.3769 113.358 96.3769C112.315 96.3769 111.467 95.531 111.467 94.4863C111.467 93.4435 112.313 92.5956 113.358 92.5956ZM132.255 92.5956C133.297 92.5956 134.145 93.4415 134.145 94.4863C134.145 95.529 133.299 96.3769 132.255 96.3769C131.212 96.3769 130.364 95.531 130.364 94.4863C130.364 93.4435 131.21 92.5956 132.255 92.5956ZM151.151 92.5956C152.194 92.5956 153.042 93.4415 153.042 94.4863C153.042 95.529 152.196 96.3769 151.151 96.3769C150.109 96.3769 149.261 95.531 149.261 94.4863C149.261 93.4435 150.107 92.5956 151.151 92.5956ZM170.048 92.5956C171.091 92.5956 171.939 93.4415 171.939 94.4863C171.939 95.529 171.093 96.3769 170.048 96.3769C169.006 96.3769 168.158 95.531 168.158 94.4863C168.158 93.4435 169.004 92.5956 170.048 92.5956ZM18.8676 111.492C19.9104 111.492 20.7583 112.338 20.7583 113.383C20.7583 114.426 19.9124 115.274 18.8676 115.274C17.8248 115.274 16.977 114.428 16.977 113.383C16.977 112.34 17.8229 111.492 18.8676 111.492ZM37.7645 111.492C38.8073 111.492 39.6551 112.338 39.6551 113.383C39.6551 114.426 38.8092 115.274 37.7645 115.274C36.7217 115.274 35.8738 114.428 35.8738 113.383C35.8738 112.34 36.7197 111.492 37.7645 111.492ZM56.6613 111.492C57.7041 111.492 58.552 112.338 58.552 113.383C58.552 114.426 57.7061 115.274 56.6613 115.274C55.6186 115.274 54.7707 114.428 54.7707 113.383C54.7707 112.34 55.6166 111.492 56.6613 111.492ZM75.5582 111.492C76.601 111.492 77.4489 112.338 77.4489 113.383C77.4489 114.426 76.6029 115.274 75.5582 115.274C74.5154 115.274 73.6675 114.428 73.6675 113.383C73.6675 112.34 74.5135 111.492 75.5582 111.492ZM94.4551 111.492C95.4978 111.492 96.3457 112.338 96.3457 113.383C96.3457 114.426 95.4998 115.274 94.4551 115.274C93.4123 115.274 92.5644 114.428 92.5644 113.383C92.5644 112.34 93.4103 111.492 94.4551 111.492ZM113.352 111.492C114.395 111.492 115.243 112.338 115.243 113.383C115.243 114.426 114.397 115.274 113.352 115.274C112.309 115.274 111.461 114.428 111.461 113.383C111.461 112.34 112.307 111.492 113.352 111.492ZM132.249 111.492C133.292 111.492 134.139 112.338 134.139 113.383C134.139 114.426 133.294 115.274 132.249 115.274C131.206 115.274 130.358 114.428 130.358 113.383C130.358 112.34 131.204 111.492 132.249 111.492ZM151.146 111.492C152.188 111.492 153.036 112.338 153.036 113.383C153.036 114.426 152.19 115.274 151.146 115.274C150.103 115.274 149.255 114.428 149.255 113.383C149.255 112.34 150.101 111.492 151.146 111.492ZM170.042 111.492C171.085 111.492 171.933 112.338 171.933 113.383C171.933 114.426 171.087 115.274 170.042 115.274C169 115.274 168.152 114.428 168.152 113.383C168.152 112.34 168.998 111.492 170.042 111.492ZM18.8618 130.389C19.9046 130.389 20.7524 131.235 20.7524 132.28C20.7524 133.323 19.9065 134.171 18.8618 134.171C17.819 134.171 16.9711 133.325 16.9711 132.28C16.9711 131.237 17.817 130.389 18.8618 130.389ZM37.7586 130.389C38.8014 130.389 39.6493 131.235 39.6493 132.28C39.6493 133.323 38.8034 134.171 37.7586 134.171C36.7158 134.171 35.868 133.325 35.868 132.28C35.868 131.237 36.7139 130.389 37.7586 130.389ZM56.6555 130.389C57.6983 130.389 58.5462 131.235 58.5462 132.28C58.5462 133.323 57.7002 134.171 56.6555 134.171C55.6127 134.171 54.7648 133.325 54.7648 132.28C54.7648 131.237 55.6108 130.389 56.6555 130.389ZM75.5524 130.389C76.5951 130.389 77.443 131.235 77.443 132.28C77.443 133.323 76.5971 134.171 75.5524 134.171C74.5096 134.171 73.6617 133.325 73.6617 132.28C73.6617 131.237 74.5076 130.389 75.5524 130.389ZM94.4492 130.389C95.492 130.389 96.3399 131.235 96.3399 132.28C96.3399 133.323 95.4939 134.171 94.4492 134.171C93.4064 134.171 92.5585 133.325 92.5585 132.28C92.5585 131.237 93.4045 130.389 94.4492 130.389ZM113.346 130.389C114.389 130.389 115.237 131.235 115.237 132.28C115.237 133.323 114.391 134.171 113.346 134.171C112.303 134.171 111.455 133.325 111.455 132.28C111.455 131.237 112.301 130.389 113.346 130.389ZM132.243 130.389C133.286 130.389 134.134 131.235 134.134 132.28C134.134 133.323 133.288 134.171 132.243 134.171C131.2 134.171 130.352 133.325 130.352 132.28C130.352 131.237 131.198 130.389 132.243 130.389ZM151.14 130.389C152.183 130.389 153.03 131.235 153.03 132.28C153.03 133.323 152.185 134.171 151.14 134.171C150.097 134.171 149.249 133.325 149.249 132.28C149.249 131.237 150.095 130.389 151.14 130.389ZM170.037 130.389C171.079 130.389 171.927 131.235 171.927 132.28C171.927 133.323 171.081 134.171 170.037 134.171C168.994 134.171 168.146 133.325 168.146 132.28C168.146 131.237 168.992 130.389 170.037 130.389Z" fill="white"/>
</svg>
