<svg width="189" height="152" fill="none" xmlns="http://www.w3.org/2000/svg"><path fill-rule="evenodd" clip-rule="evenodd" d="M7.559 0h173.859c4.157 0 7.558 3.401 7.558 7.559v136.063c0 4.157-3.401 7.559-7.558 7.559H7.558c-4.157 0-7.558-3.402-7.558-7.559V7.559C0 3.4 3.401 0 7.559 0zm11.338 17.008a1.891 1.891 0 11-.001 3.783 1.891 1.891 0 010-3.783zm18.897 0a1.891 1.891 0 11-.001 3.783 1.891 1.891 0 010-3.783zm18.897 0a1.891 1.891 0 11-.002 3.782 1.891 1.891 0 01.002-3.782zm18.896 0a1.891 1.891 0 110 3.783 1.891 1.891 0 010-3.783zm18.897 0a1.891 1.891 0 110 3.783 1.891 1.891 0 010-3.783zm18.897 0a1.891 1.891 0 110 3.783 1.891 1.891 0 010-3.783zm18.897 0a1.891 1.891 0 110 3.783 1.891 1.891 0 010-3.783zm18.897 0a1.891 1.891 0 110 3.783 1.891 1.891 0 010-3.783zm18.897 0a1.89 1.89 0 11-.001 3.781 1.89 1.89 0 01.001-3.78zM18.891 35.905a1.891 1.891 0 11-.001 3.782 1.891 1.891 0 01.001-3.782zm18.897 0a1.891 1.891 0 11-.001 3.782 1.891 1.891 0 010-3.782zm18.897 0a1.891 1.891 0 11-.001 3.782 1.891 1.891 0 010-3.782zm18.897 0a1.891 1.891 0 11-.001 3.782 1.891 1.891 0 010-3.782zm18.896 0a1.891 1.891 0 110 3.782 1.891 1.891 0 010-3.782zm18.897 0a1.891 1.891 0 110 3.783 1.891 1.891 0 010-3.783zm18.897 0a1.891 1.891 0 110 3.783 1.891 1.891 0 010-3.783zm18.897 0a1.891 1.891 0 110 3.783 1.891 1.891 0 010-3.783zm18.897 0a1.891 1.891 0 110 3.783 1.891 1.891 0 010-3.783zM18.886 54.802a1.891 1.891 0 11-.002 3.782 1.891 1.891 0 01.001-3.782zm18.896 0a1.891 1.891 0 11-.001 3.782 1.891 1.891 0 01.001-3.782zm18.897 0a1.891 1.891 0 11-.001 3.782 1.891 1.891 0 010-3.782zm18.897 0a1.891 1.891 0 11-.001 3.782 1.891 1.891 0 010-3.782zm18.897 0a1.891 1.891 0 11-.001 3.782 1.891 1.891 0 010-3.782zm18.896 0a1.891 1.891 0 110 3.783 1.891 1.891 0 010-3.783zm18.897 0a1.891 1.891 0 110 3.783 1.891 1.891 0 010-3.783zm18.897 0a1.891 1.891 0 110 3.783 1.891 1.891 0 010-3.783zm18.897 0a1.891 1.891 0 110 3.783 1.891 1.891 0 010-3.783zM18.88 73.699a1.891 1.891 0 11-.002 3.782 1.891 1.891 0 01.001-3.782zm18.896 0a1.891 1.891 0 11-.001 3.782 1.891 1.891 0 01.001-3.782zm18.897 0a1.891 1.891 0 11-.001 3.782 1.891 1.891 0 01.001-3.782zm18.897 0a1.891 1.891 0 11-.001 3.782 1.891 1.891 0 010-3.782zm18.897 0a1.891 1.891 0 11-.002 3.782 1.891 1.891 0 01.002-3.782zm18.897 0a1.891 1.891 0 11-.002 3.782 1.891 1.891 0 01.002-3.782zm18.896 0a1.891 1.891 0 110 3.783 1.891 1.891 0 010-3.783zm18.897 0a1.891 1.891 0 110 3.783 1.891 1.891 0 010-3.783zm18.897 0a1.891 1.891 0 110 3.783 1.891 1.891 0 010-3.783zM18.874 92.596a1.891 1.891 0 11-.002 3.782 1.891 1.891 0 01.002-3.782zm18.896 0a1.891 1.891 0 110 3.782 1.891 1.891 0 010-3.782zm18.897 0a1.891 1.891 0 110 3.782 1.891 1.891 0 010-3.782zm18.897 0a1.891 1.891 0 11-.001 3.782 1.891 1.891 0 01.001-3.782zm18.897 0a1.891 1.891 0 11-.001 3.782 1.891 1.891 0 010-3.782zm18.897 0a1.89 1.89 0 11-.001 3.78 1.89 1.89 0 01.001-3.78zm18.897 0a1.891 1.891 0 11-.002 3.782 1.891 1.891 0 01.002-3.782zm18.896 0a1.891 1.891 0 110 3.782 1.891 1.891 0 010-3.782zm18.897 0a1.891 1.891 0 110 3.782 1.891 1.891 0 010-3.782zm-151.18 18.896a1.891 1.891 0 11-.002 3.783 1.891 1.891 0 01.002-3.783zm18.896 0a1.891 1.891 0 110 3.783 1.891 1.891 0 010-3.783zm18.897 0a1.891 1.891 0 11-.001 3.783 1.891 1.891 0 01.001-3.783zm18.897 0a1.891 1.891 0 11-.001 3.783 1.891 1.891 0 01.001-3.783zm18.897 0a1.891 1.891 0 11-.001 3.783 1.891 1.891 0 01.001-3.783zm18.897 0a1.891 1.891 0 110 3.783 1.891 1.891 0 010-3.783zm18.897 0a1.89 1.89 0 11-.001 3.781 1.89 1.89 0 01.001-3.781zm18.897 0a1.891 1.891 0 11-.003 3.783 1.891 1.891 0 01.003-3.783zm18.896 0a1.891 1.891 0 110 3.783 1.891 1.891 0 010-3.783zm-151.18 18.897a1.891 1.891 0 11-.002 3.783 1.891 1.891 0 01.002-3.783zm18.897 0a1.891 1.891 0 11-.002 3.783 1.891 1.891 0 01.002-3.783zm18.897 0a1.891 1.891 0 11-.002 3.783 1.891 1.891 0 01.002-3.783zm18.896 0a1.891 1.891 0 11-.001 3.783 1.891 1.891 0 01.001-3.783zm18.897 0a1.891 1.891 0 11-.001 3.783 1.891 1.891 0 01.001-3.783zm18.897 0a1.891 1.891 0 110 3.783 1.891 1.891 0 010-3.783zm18.897 0a1.891 1.891 0 110 3.783 1.891 1.891 0 010-3.783zm18.897 0a1.89 1.89 0 11-.001 3.781 1.89 1.89 0 01.001-3.781zm18.897 0a1.891 1.891 0 11-.003 3.783 1.891 1.891 0 01.003-3.783z" fill="#fff"/></svg>