<svg version="1.0" xmlns="http://www.w3.org/2000/svg" width="1706.667" height="197.333" viewBox="0 0 1280 148"><path d="M1260.5 3.6c-35.5 10.5-51.8 18.7-111 56.1-45.5 28.7-71.3 42.6-99 53.6-34.4 13.5-72.7 22.5-117.5 27.4-23.2 2.5-79.1 2.5-100.5 0-46.2-5.5-75.3-13.7-138-38.7-42.9-17.2-52-20.4-70-25-24.7-6.3-36.4-7.5-71.5-7.5-31.8.1-41.8.9-65.4 5.6-20 3.9-34.7 8.4-107.1 32.2-45.1 14.9-72.7 23.3-94 28.6-24.7 6.1-28.2 6.6-54 6.5-21.1 0-25.2-.2-34.4-2.2-21.6-4.7-41.4-12.9-75.6-31.2C86.3 89.6 59.7 77.6 40 71.7c-16-4.8-33.6-8.9-36.8-8.5l-2.7.3-.3 42.3L0 148h1280V0h-3.7c-2.1.1-9.2 1.7-15.8 3.6z" fill="transparent"/></svg>