<?xml version="1.0" standalone="no"?>
<!DOCTYPE svg PUBLIC "-//W3C//DTD SVG 20010904//EN"
 "http://www.w3.org/TR/2001/REC-SVG-20010904/DTD/svg10.dtd">
<svg version="1.0" xmlns="http://www.w3.org/2000/svg"
 width="1280.000000pt" height="148.000000pt" viewBox="0 0 1280.000000 148.000000"
 preserveAspectRatio="xMidYMid meet">
<metadata>
Created by potrace 1.16, written by Peter Selinger 2001-2019
</metadata>
<g transform="translate(0.000000,148.000000) scale(0.100000,-0.100000)"
fill="#0b3b7d" stroke="none">
<path d="M12605 1444 c-355 -105 -518 -187 -1110 -561 -455 -287 -713 -426
-990 -536 -344 -135 -727 -225 -1175 -274 -232 -25 -791 -25 -1005 0 -462 55
-753 137 -1380 387 -429 172 -520 204 -700 250 -247 63 -364 75 -715 75 -318
-1 -418 -9 -654 -56 -200 -39 -347 -84 -1071 -322 -451 -149 -727 -233 -940
-286 -247 -61 -282 -66 -540 -65 -211 0 -252 2 -344 22 -216 47 -414 129 -756
312 -362 194 -628 314 -825 373 -160 48 -336 89 -368 85 l-27 -3 -3 -423 -2
-422 6400 0 6400 0 0 740 0 740 -37 0 c-21 -1 -92 -17 -158 -36z"/>
</g>
</svg>
