<svg width="119" height="76" fill="none" xmlns="http://www.w3.org/2000/svg"><path fill-rule="evenodd" clip-rule="evenodd" d="M5.334 48.528c5.806.686 20.426-.375 26.953.032 4.319.27 8.568-.224 13.137-.115 13.71.33 28.054.163 41.822.163l25.819-.083c-1.016-4.005-1.432-5.88-3.743-8.802-12.56-15.889-31.579 2.5-45.35-18.833-3.467-5.373-3.483-9.08-10.849-14.752C35.603-7.35 10.82 2.658 6.126 23.828c-1.378 6.216-.891 17.642-.795 24.7h.003zM3.386 64.811h112.178c3.822 0 3.098-3.178 3.098-7.59 0-3.58-2.073-3.255-5.258-3.249H19.832c-19.852 0-19.817-1.9-19.83 5.678-.006 3.287-.16 5.161 3.38 5.161h.004zm109.871 5.499c-1.407-.45-3.944-.202-5.514-.177 0 2.785-.176 5.39 2.694 5.45 2.926.061 2.935-2.483 2.82-5.273zm-102.479-.196l-5.428.035c-.086 2.628-.173 5.341 2.624 5.434 2.993.1 2.858-2.63 2.804-5.469z" fill="#fff"/></svg>