<svg width="61" height="76" fill="none" xmlns="http://www.w3.org/2000/svg"><path fill-rule="evenodd" clip-rule="evenodd" d="M16.354 36.64c2.613-1.493 16.538-1.531 20.941-1.114 2.581.244 4.342.612 6.691 1.07 1.285-1.943 2.454-8.364 2.869-11.48.606-4.524.777-8.95.858-13.588.09-5.046-1.552-7.871-4.594-9.835C39.67-.53 35.207.09 30.282.08c-4.81-.008-9.505-.594-12.924 1.529-3.005 1.868-4.812 4.797-4.772 9.76.061 7.538.984 19.816 3.768 25.268v.003zm9.943 1.331c-4.04.256-8.139.604-11.367 1.863-2.732 1.064-6.399 3.747-4.284 7.886 1.798 3.518 5.79 2.674 10.502 2.665 3.388-.006 24.433.293 25.973-.304 3.339-1.3 4.261-5.685 1.483-8.356-3.82-3.672-15.471-4.183-22.307-3.75v-.004zm1.4 20.077c-4.936.218-14.972-.191-15.102 4.83-.055 2.122 2.41 3.471 4.06 1.963.68-.62.305-.873 1.396-1.152 2.285-.583 6.856-.707 9.397-.707.534.162.377 2.46 2.686 2.506 1.824.037 2.21-1.543 2.433-2.028.209-.452-.06-.275.395-.478 2.703 0 6.801.119 9.252.69 1.195.278.676.319 1.343 1.047 1.447 1.575 4.127.54 4.168-1.688.095-5.134-10.018-4.812-14.984-4.98l-.099-5.05H27.7l-.006 5.044.003.003zM51.124 40.51c1.065 1.055 1.75 2.792 1.775 4.968 2.457-1.36 4.116-5.47 4.632-8.565.247-1.47.142-2.88.345-4.278.59-.685 1.158-.583 1.833-1.604.488-.737.795-1.764.537-2.875-.676-2.9-3.324-2.874-5.702-2.874-3.814-.003-6.021 4.452-2.126 6.947.638.409.475-.003.499 1.018.032 1.514-.317 3.89-.824 5.264-.282.76-.76 1.4-.963 1.998h-.006zM2.47 32.475c.255 3.202.22 5.143 1.241 7.852 1.035 2.758 1.958 3.428 3.68 5.157.352-2.318.473-3.701 1.892-4.992-1.37-2.547-2.054-4.681-1.793-8.023 3.713-1.467 3.327-7.167-1.934-7.187l-1.419-.003c-4.443-.003-5.774 5.218-1.667 7.196zm27.09 35.722c-5.224 1.192-3.107 8.347 1.389 7.283 4.965-1.178 2.903-8.26-1.39-7.283zm15.775.237c-4.908 2.008-1.767 8.464 2.47 6.9 1.582-.582 3.038-2.52 2.252-4.684-.572-1.572-2.451-3.144-4.72-2.216h-.002zm-32.76 0c-4.864 1.97-1.79 8.481 2.468 6.904 1.58-.586 3.03-2.518 2.248-4.688-.572-1.577-2.445-3.138-4.716-2.216z" fill="#fff"/></svg>