<svg width="45" height="76" fill="none" xmlns="http://www.w3.org/2000/svg"><path fill-rule="evenodd" clip-rule="evenodd" d="M38.394 4.187C35.833 1.393 32.255 0 28.324 0H17.71C13.776 0 10.2 1.244 7.64 4.038c-2.561 2.795-3.786 6.639-3.445 10.555L6.55 41.87h32.93l2.358-27.426c.342-3.917-.883-7.466-3.445-10.26v.003zm1.711 69.635a1.77 1.77 0 01-3.54 0V58.385H8.257v15.437a1.77 1.77 0 01-3.54 0V57.76C2.358 57.464 0 55.215 0 52.485v-3.537c0-2.926 2.983-4.718 5.91-4.718h34.204c2.926 0 4.705 1.792 4.705 4.718v3.537c0 2.728-1.77 4.979-4.717 5.275v16.062h.002z" fill="#fff"/></svg>