<svg width="51" height="50" fill="none" xmlns="http://www.w3.org/2000/svg"><path fill-rule="evenodd" clip-rule="evenodd" d="M48.304 14.353H11.286c-3.088 0-6.184.022-9.272-.004-.964-.007-1.07.32-1.419.923-.297.515-.496 1.036-.533 1.712-.08 1.45-.007 3.114-.007 4.589 0 6.115-.128 12.364.007 18.471l49.47-.011c-.088-6.622-.008-13.54-.008-20.215 0-2.888.277-3.649-1.22-5.463v-.002zM.39 10.257c.172 1.221.73 1.988 1.38 2.59.381.351 1.068.223 1.71.223h25.462c1.47 0 19.022.156 19.492-.104.628-.347 1.319-1.41 1.514-2.38.183-.91.146-6.794-.067-7.612-.264-1.01-.968-1.882-1.683-2.32-1.127-.692-1.693-.648-3.259-.648H5.724c-1.47 0-2.232-.104-3.361.544C1.538 1.022.931 1.698.599 2.691.27 3.675.22 9.053.389 10.255l.002.002zm2.66 31.094c-.04 2.173-.002 4.383-.002 6.56 0 2.036-.124 2.062 1.311 2.05 1.072-.01 2.147-.003 3.22-.003 3.478 0 2.879.57 3.503-3.036l.986-5.561-9.016-.01H3.05zm43.446 8.114l.031-8.104-8.999.009c.011.607.808 4.61.98 5.562.703 3.845-.688 2.952 6.827 3.03.585.008 1.047.035 1.162-.496l-.001-.002z" fill="#fff"/></svg>