<svg width="81" height="76" fill="none" xmlns="http://www.w3.org/2000/svg"><path fill-rule="evenodd" clip-rule="evenodd" d="M24.658 61.216h31.424c16.004 0 10.904-9.528 17.176-18.338 2.126-2.987 4.772-2.03 6.512-5.801 3.025-6.561-2.779-12.927-9.54-11.794-6.094 1.02-8.357 8.619-10.152 14.423-20.195-5.207-19.796-4.94-39.546.006-1.88-5.775-4.032-12.774-9.398-14.221C4.245 23.637-1.893 29.902.544 36.664c1.552 4.305 3.672 3.169 6.126 5.49 1.28 1.207 3.068 6.281 3.925 8.304 3.633 8.56 3.165 10.758 14.063 10.758z" fill="#fff"/><path fill-rule="evenodd" clip-rule="evenodd" d="M8.251 21.342c4.698.15 7.775 1.399 10.087 3.753 2.81 2.87 2.83 5.382 4.791 8.787 16.004-2.525 18.591-3.19 34.7.117 1.801-4.055 2.986-9.366 8.66-11.67 1.695-.689 1.448-.37 2.834-.76a68.53 68.53 0 001.29-.37c1.512-.539 1.015-.22 1.973-.9C68.989.77 55.813 5.624 50.287 3.083c-10.89-5.013-11.673-3.166-20.263.266-3.788 1.516-20.201-1.51-21.766 17.99l-.007.004zm8.2 54.18c1.61-1.958 3.467-5.898 4.568-9.236l-2.87-1.168c-1.318-.357-2.587-.533-3.902-.773-1.415 4.253-7.018 11.544 2.201 11.174l.003.003zm43.017-9.703c.918 2.88 3.123 9.742 6.6 9.771 6.55.055.931-8.736.285-11.323l-6.885 1.552z" fill="#fff"/></svg>