<svg xmlns="http://www.w3.org/2000/svg" width="870.3" height="870.3"><g fill="#0b3b7d"><path d="M561.05 288.9a322.096 322.096 0 0177.1 46.2V201.5C638.15 90.4 547.75 0 436.65 0h-3.1c-111 0-201.4 90.4-201.4 201.5v133.6a322.103 322.103 0 0177.1-46.2c7.5-3.2 15.2-6.1 22.9-8.7v-78.7c0-56 45.5-101.5 101.5-101.5h3.1c56 0 101.5 45.5 101.5 101.5v78.8c7.599 2.5 15.3 5.4 22.8 8.6z"/><path d="M151.75 586.9c0 156.5 126.9 283.399 283.4 283.399 156.5 0 283.401-126.8 283.401-283.399 0-76.9-30.701-146.7-80.4-197.801-28-28.699-62-51.5-100-66.399-31.9-12.5-66.701-19.3-103-19.3-36.3 0-71.1 6.8-103 19.3-38 14.8-72 37.6-100 66.399C182.35 440.2 151.75 510 151.75 586.9zm210.399-57.2c1-38.7 32.5-70.2 71.2-71.101 41.099-1 74.8 32.101 74.8 73 0 4.301-.4 8.5-1.1 12.5-3.602 20.7-15.9 38.5-33.102 49.301-7.1 4.5-10.699 12.899-8.898 21l21.701 102.9c1.301 6.2-3.4 12.101-9.801 12.101H393.35c-6.4 0-11.101-5.801-9.8-12.101l21.699-102.9c1.7-8.2-1.8-16.601-8.899-21.101-17.2-10.8-29.5-28.5-33.101-49.3a74.726 74.726 0 01-1.1-14.299z"/></g></svg>