<svg width="67" height="94" fill="none" xmlns="http://www.w3.org/2000/svg"><circle cx="37" cy="31" r="30" fill="#26A37A"/><path d="M4.336 17.125h22.383c4.375 0 8.177.651 11.406 1.953 3.23 1.302 5.716 3.23 7.46 5.781 1.772 2.552 2.657 5.703 2.657 9.453 0 3.256-.508 5.977-1.523 8.165-1.016 2.187-2.435 3.997-4.258 5.43-1.797 1.406-3.893 2.564-6.29 3.476l-4.491 2.539H12.89l-.078-10.586H26.72c1.744 0 3.19-.313 4.336-.938a6.047 6.047 0 002.578-2.656c.599-1.172.898-2.565.898-4.18 0-1.64-.3-3.046-.898-4.218a6.176 6.176 0 00-2.656-2.696c-1.146-.625-2.566-.937-4.258-.937h-8.672V74H4.336V17.125zM35.469 74L22.89 48.844l14.53-.078 12.735 24.648V74H35.47z" fill="#EAEAEA"/></svg>