<svg width="58" height="70" viewBox="0 0 58 70" fill="none" xmlns="http://www.w3.org/2000/svg">
<path d="M48.0849 6.24227L29.9164 0.14945C29.3215 -0.0498167 28.6785 -0.0498167 28.0836 0.14945L9.9151 6.24227C7.02643 7.20733 4.51361 9.0634 2.73367 11.5468C0.953734 14.0301 -0.00278885 17.0145 6.10774e-06 20.0758V35.0002C6.10774e-06 57.0586 26.68 69.2413 27.8226 69.7488C28.1933 69.9144 28.5944 70 29 70C29.4056 70 29.8067 69.9144 30.1774 69.7488C31.32 69.2413 58 57.0586 58 35.0002V20.0758C58.0028 17.0145 57.0463 14.0301 55.2663 11.5468C53.4864 9.0634 50.9736 7.20733 48.0849 6.24227ZM42.6822 28.3415L30.2934 40.8013C29.7864 41.3146 29.1831 41.7215 28.5185 41.9984C27.8539 42.2753 27.1413 42.4166 26.4219 42.4142H26.3262C25.5922 42.4029 24.8681 42.242 24.1976 41.9412C23.5272 41.6404 22.9244 41.206 22.4257 40.6642L15.7383 33.6644C15.4487 33.3941 15.217 33.0672 15.0575 32.7037C14.898 32.3402 14.8141 31.9477 14.8108 31.5504C14.8076 31.153 14.885 30.7592 15.0385 30.3931C15.192 30.027 15.4183 29.6963 15.7034 29.4212C15.9885 29.1462 16.3266 28.9327 16.6967 28.7937C17.0668 28.6548 17.4613 28.5934 17.8558 28.6133C18.2504 28.6332 18.6368 28.7339 18.9913 28.9094C19.3457 29.0848 19.6608 29.3313 19.9172 29.6336L26.4248 36.4585L38.57 24.2087C39.1169 23.6774 39.8495 23.3834 40.6099 23.39C41.3702 23.3967 42.0976 23.7034 42.6353 24.2442C43.173 24.785 43.4779 25.5165 43.4846 26.2812C43.4912 27.0459 43.1989 27.7827 42.6706 28.3328L42.6822 28.3415Z" fill="#26A37A"/>
</svg>
