<?xml version="1.0" standalone="no"?>
<!DOCTYPE svg PUBLIC "-//W3C//DTD SVG 20010904//EN"
 "http://www.w3.org/TR/2001/REC-SVG-20010904/DTD/svg10.dtd">
<svg version="1.0" xmlns="http://www.w3.org/2000/svg"
 width="1280.000000pt" height="1007.000000pt" viewBox="0 0 1280.000000 1007.000000"
 preserveAspectRatio="xMidYMid meet">
<metadata>
Created by potrace 1.16, written by Peter Selinger 2001-2019
</metadata>
<g transform="translate(0.000000,1007.000000) scale(0.100000,-0.100000)"
fill="#ffffff" stroke="none">
<path d="M0 5035 l0 -5035 6400 0 6400 0 0 4166 0 4165 -47 -7 c-91 -13 -284
-64 -381 -100 -200 -75 -350 -162 -622 -360 -201 -147 -272 -192 -381 -243
-276 -129 -564 -132 -1049 -11 -461 115 -770 130 -1133 54 -169 -36 -341 -95
-662 -229 -430 -180 -640 -244 -908 -280 -450 -59 -795 53 -1567 510 -491 290
-658 383 -905 505 -595 294 -1039 423 -1675 490 -601 62 -1039 184 -1510 420
-183 92 -337 182 -646 380 -513 329 -705 432 -989 528 -98 34 -279 82 -307 82
-17 0 -18 -246 -18 -5035z"/>
</g>
</svg>
