<svg width="114" height="61" fill="none" xmlns="http://www.w3.org/2000/svg"><path fill-rule="evenodd" clip-rule="evenodd" d="M15.844 11.102h11.488a4.756 4.756 0 014.743 4.742v11.488a4.756 4.756 0 01-4.743 4.743H15.844a4.756 4.756 0 01-4.742-4.743V15.844a4.756 4.756 0 014.742-4.742zm-9.37 46.474a3.237 3.237 0 11-6.474 0v-45.76c0-3.227 1.294-6.17 3.378-8.31C5.485 1.344 8.393 0 11.593 0h98.634a3.237 3.237 0 010 6.474H11.593a5 5 0 00-3.588 1.534 5.445 5.445 0 00-1.531 3.809v45.759zm88.019-46.474h11.488a4.756 4.756 0 014.742 4.742v11.488a4.756 4.756 0 01-4.742 4.743H94.493a4.756 4.756 0 01-4.743-4.743V15.844a4.756 4.756 0 014.743-4.742zm-26.216 0h11.487a4.756 4.756 0 014.743 4.742v11.488a4.756 4.756 0 01-4.743 4.743H68.278a4.756 4.756 0 01-4.743-4.743V15.844a4.756 4.756 0 014.742-4.742zm-26.217 0h11.488a4.756 4.756 0 014.743 4.742v11.488a4.756 4.756 0 01-4.743 4.743H42.06a4.756 4.756 0 01-4.742-4.743V15.844a4.756 4.756 0 014.742-4.742zM15.844 37.318h11.488a4.756 4.756 0 014.743 4.742v11.488a4.756 4.756 0 01-4.743 4.743H15.844a4.756 4.756 0 01-4.742-4.743V42.06a4.756 4.756 0 014.742-4.742z" fill="#fff"/></svg>