<svg width="70" height="35" fill="none" xmlns="http://www.w3.org/2000/svg"><path fill-rule="evenodd" clip-rule="evenodd" d="M15.844 11.101h11.488a4.756 4.756 0 014.742 4.742v11.489a4.756 4.756 0 01-4.742 4.742H15.843a4.756 4.756 0 01-4.742-4.742V15.843a4.756 4.756 0 014.742-4.742zm53.553.716V31.35a3.237 3.237 0 01-6.474 0V11.817c0-1.492-.587-2.84-1.532-3.81a5.003 5.003 0 00-3.587-1.533H11.593a5.003 5.003 0 00-3.588 1.533 5.444 5.444 0 00-1.531 3.81V31.35a3.237 3.237 0 01-6.474 0V11.817c0-3.229 1.294-6.17 3.377-8.31C5.485 1.343 8.393 0 11.593 0h46.21c3.2 0 6.109 1.343 8.216 3.507a11.897 11.897 0 013.378 8.31zM42.06 11.1h11.488a4.756 4.756 0 014.742 4.742v11.489a4.756 4.756 0 01-4.742 4.742H42.06a4.756 4.756 0 01-4.742-4.742V15.843a4.756 4.756 0 014.742-4.742z" fill="#fff"/></svg>