<svg width="88" height="61" fill="none" xmlns="http://www.w3.org/2000/svg"><path fill-rule="evenodd" clip-rule="evenodd" d="M15.844 11.102h11.488a4.756 4.756 0 014.743 4.743v11.488a4.756 4.756 0 01-4.743 4.742H15.844a4.756 4.756 0 01-4.742-4.742V15.845a4.756 4.756 0 014.742-4.743zm-9.37 46.474a3.237 3.237 0 11-6.474 0v-45.76c0-3.227 1.294-6.17 3.378-8.31C5.485 1.344 8.393 0 11.593 0h72.422a3.237 3.237 0 110 6.474H11.594a5.001 5.001 0 00-3.588 1.534 5.445 5.445 0 00-1.531 3.809v45.759zm61.803-46.474h11.488a4.756 4.756 0 014.742 4.743v11.488a4.756 4.756 0 01-4.742 4.742H68.277a4.756 4.756 0 01-4.743-4.742V15.845a4.756 4.756 0 014.743-4.743zm-26.217 0h11.488a4.756 4.756 0 014.743 4.743v11.488a4.756 4.756 0 01-4.742 4.742H42.06a4.756 4.756 0 01-4.742-4.742V15.845a4.756 4.756 0 014.742-4.743zM15.844 37.318h11.488a4.756 4.756 0 014.743 4.743v11.488a4.756 4.756 0 01-4.743 4.742H15.844a4.756 4.756 0 01-4.742-4.742V42.06a4.756 4.756 0 014.742-4.743z" fill="#fff"/></svg>