<svg width="96" height="35" fill="none" xmlns="http://www.w3.org/2000/svg"><path fill-rule="evenodd" clip-rule="evenodd" d="M15.844 11.102h11.488a4.756 4.756 0 014.743 4.742v11.488a4.756 4.756 0 01-4.743 4.743H15.844a4.756 4.756 0 01-4.742-4.743V15.844a4.756 4.756 0 014.742-4.742zm79.765.715V31.35a3.237 3.237 0 01-6.474 0V11.817a5.45 5.45 0 00-1.531-3.81 5.002 5.002 0 00-3.588-1.533H11.593a5 5 0 00-3.588 1.534 5.445 5.445 0 00-1.531 3.809V31.35a3.237 3.237 0 01-6.474 0V11.817c0-3.228 1.294-6.171 3.378-8.31C5.485 1.343 8.393 0 11.593 0h72.423c3.2 0 6.108 1.343 8.215 3.507a11.895 11.895 0 013.378 8.31zm-27.332-.715h11.488a4.756 4.756 0 014.742 4.742v11.488a4.756 4.756 0 01-4.742 4.743H68.277a4.756 4.756 0 01-4.743-4.743V15.844a4.756 4.756 0 014.743-4.742zm-26.216 0h11.488a4.756 4.756 0 014.742 4.742v11.488a4.756 4.756 0 01-4.742 4.743H42.06a4.756 4.756 0 01-4.743-4.743V15.844a4.756 4.756 0 014.743-4.742z" fill="#fff"/></svg>