<svg width="140" height="61" fill="none" xmlns="http://www.w3.org/2000/svg"><path fill-rule="evenodd" clip-rule="evenodd" d="M15.844 11.102h11.488a4.756 4.756 0 014.743 4.742v11.488a4.756 4.756 0 01-4.743 4.743H15.844a4.756 4.756 0 01-4.742-4.743V15.844a4.756 4.756 0 014.742-4.742zm-9.37 46.474a3.237 3.237 0 01-6.474 0v-45.76c0-3.227 1.294-6.17 3.378-8.31C5.485 1.344 8.393 0 11.593 0h124.845a3.237 3.237 0 110 6.474H11.593a5.001 5.001 0 00-3.587 1.534 5.444 5.444 0 00-1.532 3.809v45.76-.001zm114.235-46.474h11.488a4.756 4.756 0 014.743 4.742v11.488a4.756 4.756 0 01-4.743 4.743h-11.488a4.756 4.756 0 01-4.742-4.743V15.844a4.756 4.756 0 014.742-4.742zm-26.216 0h11.488a4.755 4.755 0 014.742 4.742v11.488a4.755 4.755 0 01-4.742 4.743H94.493a4.756 4.756 0 01-4.742-4.743V15.844a4.756 4.756 0 014.742-4.742zm-26.216 0h11.488a4.756 4.756 0 014.742 4.742v11.488a4.756 4.756 0 01-4.742 4.743H68.277a4.756 4.756 0 01-4.743-4.743V15.844a4.756 4.756 0 014.743-4.742zm-26.216 0h11.488a4.756 4.756 0 014.742 4.742v11.488a4.756 4.756 0 01-4.742 4.743H42.06a4.756 4.756 0 01-4.743-4.743V15.844a4.756 4.756 0 014.743-4.742zM15.845 37.318h11.488a4.756 4.756 0 014.742 4.742v11.488a4.756 4.756 0 01-4.742 4.743H15.845a4.756 4.756 0 01-4.743-4.743V42.06a4.756 4.756 0 014.743-4.742z" fill="#fff"/></svg>