<svg version="1.0" xmlns="http://www.w3.org/2000/svg" width="1706.667" height="1342.667" viewBox="0 0 1280 1007"><path d="M0 503.5V1007h1280V173.9l-4.7.7c-9.1 1.3-28.4 6.4-38.1 10-20 7.5-35 16.2-62.2 36-20.1 14.7-27.2 19.2-38.1 24.3-27.6 12.9-56.4 13.2-104.9 1.1-46.1-11.5-77-13-113.3-5.4-16.9 3.6-34.1 9.5-66.2 22.9-43 18-64 24.4-90.8 28-45 5.9-79.5-5.3-156.7-51-49.1-29-65.8-38.3-90.5-50.5-59.5-29.4-103.9-42.3-167.5-49-60.1-6.2-103.9-18.4-151-42-18.3-9.2-33.7-18.2-64.6-38C80.1 28.1 60.9 17.8 32.5 8.2 22.7 4.8 4.6 0 1.8 0 .1 0 0 24.6 0 503.5z" fill="#eaeaea"/></svg>