<?xml version="1.0" encoding="UTF-8"?>
<!DOCTYPE svg PUBLIC "-//W3C//DTD SVG 1.1//EN" "http://www.w3.org/Graphics/SVG/1.1/DTD/svg11.dtd">
<!-- Creator: CorelDRAW 2019 (64-Bit) -->
<svg xmlns="http://www.w3.org/2000/svg" xml:space="preserve" width="100.483mm" height="84.7451mm" version="1.1" style="shape-rendering:geometricPrecision; text-rendering:geometricPrecision; image-rendering:optimizeQuality; fill-rule:evenodd; clip-rule:evenodd"
viewBox="0 0 11848.05 9992.37"
 xmlns:xlink="http://www.w3.org/1999/xlink">
 <defs>
 </defs>
 <g id="Vrstva_x0020_1">
  <metadata id="CorelCorpID_0Corel-Layer"/>
  <path fill="#0b3b7d" d="M5167.59 0.19c-4.43,-0.07 -8.97,-0.19 -13.45,-0.19 -231.47,0 -422.91,180.62 -436.42,411.65l-7.06 119 -342.1 4128.4 -1142.57 73.67 200.39 -3802.92 9.01 -118.89c0.62,-9.4 0.94,-19 0.94,-28.45 0,-241.41 -195.77,-437.17 -437.17,-437.17 -226.67,0 -415.81,173.4 -435.52,399.18l-9.01 118.89 -393.06 3937.91 -1589.2 102.46 -155.39 7.18c-233.32,10.81 -416.98,203.17 -416.98,436.73 0,241.41 195.77,437.17 437.18,437.17 6.72,0 13.67,-0.21 20.34,-0.47l155.5 -7.18 1453.9 -41.53 -321.66 3147.88 -6.73 88.44c-1.57,18.23 -2.42,36.84 -2.42,55.21 0,350.53 284.26,634.79 634.77,634.79 334.48,0 611.76,-259.71 633.45,-593.47l6.73 -88.44 164.85 -3275.99 1106.7 -31.52 -246.47 2890.76 -5.22 88.57c-0.7,12.49 -1.16,25.34 -1.16,37.98 0,350.53 284.26,634.79 634.77,634.79 336.11,0 614.08,-262.19 633.69,-597.67l5.22 -88.57 100.41 -2997.9 845.68 -24.02 270.26 -7.18 -388.49 3259.58 -8.27 88.35c-1.99,20.61 -3.08,41.53 -3.08,62.3 0,350.53 284.26,634.79 634.77,634.79 329.05,0 603.69,-251.65 632.37,-579.37l8.27 -88.35 228.75 -3406.71 1177.12 -31.42 -313.95 3682.52 -5.22 88.57c-0.7,12.55 -1.16,25.4 -1.16,38.04 0,350.53 284.26,634.79 634.77,634.79 336.11,0 614.08,-262.19 633.69,-597.67l5.2 -88.57 125.19 -3738.04 1.73 -48.48 1247.43 -33.25 115.62 -5.45c337.91,-16.61 603.49,-295.59 603.49,-633.95 0,-350.53 -284.26,-634.76 -634.77,-634.76 -9.15,0 -18.52,0.21 -27.59,0.61l-115.73 5.42 -1144.51 75.85 109.21 -3043.87 7.06 -119.1c0.47,-8.61 0.74,-17.36 0.74,-26.01 0,-241.41 -195.78,-437.19 -437.19,-437.19 -231.44,0 -422.83,180.45 -436.45,411.46l-7.06 119 -262.12 3163.73 -1197.22 79.33 243.2 -3496.91 11.1 -118.67c1.16,-12.89 1.75,-25.91 1.75,-38.83 0,-241.41 -195.77,-437.17 -437.17,-437.17 -225.07,0 -413.42,170.9 -435.14,394.91l-11.1 118.67 -425.99 3647.86 -449.57 29.78 -759.83 49 143.77 -4007.56 7.06 -119.1c0.5,-8.62 0.81,-17.49 0.81,-26.19 0,-236.18 -187.7,-429.69 -423.71,-436.95l-0.01 -0.09z"/>
 </g>
</svg>
