<svg xmlns="http://www.w3.org/2000/svg" width="55.254" height="55.253"><path d="M41.702 29.582c-1.519-7.248-5.13-13.871-13.693-14.206a45.172 45.172 0 01-1.391-2.438c-2.188-5.041-7.3-8.419-12.759-8.419C6.217 4.519 0 10.736 0 18.377c0 2.071.472 4.03 1.292 5.795 2.193 4.716 6.96 8 12.49 8h9.472a3 3 0 100-6h-9.47a7.734 7.734 0 01-5.187-2 7.773 7.773 0 01-2.596-5.795c0-4.333 3.525-7.858 7.859-7.858 3.121 0 6.047 1.957 7.281 4.868l.083.178c.047.094.209.411.469.885-3.395 1.476-5.626 4.31-7.079 7.721h9.363c2.362.001 4.277 2.096 4.277 4.68v.642c0 2.583-1.915 4.679-4.278 4.679H12.262c-.396 3.75-.4 7.347-.4 10 0 1.461 1.039 2.65 2.724 3.578-.004.061-.018.117-.018.18a2.805 2.805 0 002.805 2.806c.981 0 1.842-.506 2.343-1.271 4.885.979 11.113.938 15.875-.129a2.79 2.79 0 002.413 1.398 2.806 2.806 0 002.744-3.381c1.292-.862 2.061-1.924 2.061-3.182 0-2.123-.002-4.849-.205-7.771 1.653.49 3.377.777 5.17.777.157 0 .32-.014.48-.02v-6.005c-2.291.092-4.499-.531-6.552-1.57zM27.728 44.666a3.45 3.45 0 110-6.902 3.45 3.45 0 010 6.902zm26.167-17.494h-3.281a1.36 1.36 0 00-1.359 1.359v13.282c0 .75.609 1.358 1.359 1.358h3.281c.75 0 1.359-.608 1.359-1.358V28.531a1.36 1.36 0 00-1.359-1.359z" fill="#0b3b7d"/></svg>