<svg xmlns="http://www.w3.org/2000/svg" width="450.962" height="377.203" viewBox="0 0 11931.76 9980.23" shape-rendering="geometricPrecision" text-rendering="geometricPrecision" image-rendering="optimizeQuality" fill-rule="evenodd" clip-rule="evenodd"><path fill="#0b3b7d" d="M9005.24 5412.24c-328.02-1565.16-1107.79-2995.33-2956.89-3067.72-167.8-276.19-272.27-472.48-300.34-526.5C5275.53 729.41 4171.59.01 2992.8.01 1342.51.01 0 1342.6 0 2992.56c0 447.26 101.94 870.28 278.96 1251.43C752.5 5262.4 1781.93 5971.56 2976.07 5971.56h2045.46c357.81 0 647.87-289.82 647.87-647.87 0-357.8-289.98-647.86-647.87-647.86l-2044.98.08c-430.6 0-822.53-164.29-1120.1-431.91-343.12-308.35-560.62-754.31-560.62-1251.43 0-935.66 761.24-1696.89 1697.13-1696.89 673.98 0 1305.78 422.61 1572.26 1051.23l17.95 38.44c10.12 20.32 45.14 88.71 101.29 191.14-733.16 318.71-1214.86 930.76-1528.68 1667.26h2021.88c510.02.25 923.58 452.64 923.58 1010.66v138.67c0 557.76-413.55 1010.41-923.82 1010.41l-2529.54-.08c-85.54 809.8-86.35 1586.54-86.35 2159.41 0 315.52 224.36 572.21 588.2 772.66-.89 13.14-3.91 25.3-3.91 38.85 0 334.71 271.21 605.92 605.75 605.92 211.87 0 397.8-109.28 505.94-274.47 1054.89 211.38 2399.77 202.57 3428.13-27.84 104.96 180.13 297.98 301.9 521.04 301.9 334.46 0 605.75-271.21 605.75-606.16 0-42.36-4.57-83.98-13.14-123.97 278.96-186.17 445.05-415.51 445.05-687.13 0-458.44-.41-1047.14-44.23-1678.11 356.98 105.77 729.23 167.8 1116.43 167.8 33.87 0 69.13-3.02 103.65-4.33V5751.22c-494.83 19.91-971.64-114.59-1414.98-338.95zm2633.03-520.47h-708.51c-161.92 0-293.49 131.49-293.49 293.49v2868.17c0 161.93 131.48 293.25 293.49 293.25h708.51c161.93 0 293.49-131.32 293.49-293.25l-.08-2868.17c0-161.92-131.48-293.49-293.41-293.49zM5987.63 8669.56c-411.59 0-745.23-333.65-745.23-745.24 0-411.34 333.64-745.23 745.23-745.23 411.59 0 745.24 333.81 745.24 745.23 0 411.59-333.65 745.24-745.24 745.24z"/></svg>